<svg width="1440" height="787" viewBox="0 0 1440 787" fill="none" xmlns="http://www.w3.org/2000/svg">
<path d="M-866 1011C-866 878.234 -824.977 746.767 -745.273 624.107C-665.569 501.447 -548.745 389.995 -401.471 296.115C-254.198 202.235 -79.3582 127.765 113.064 76.9578C305.487 26.1503 511.724 0 720 0C928.277 0 1134.51 26.1503 1326.94 76.9578C1519.36 127.765 1694.2 202.235 1841.47 296.115C1988.75 389.995 2105.57 501.447 2185.27 624.107C2264.98 746.767 2306 878.234 2306 1011L720 1011L-866 1011Z" fill="url(#paint0_linear_194_3886)"/>
<defs>
<linearGradient id="paint0_linear_194_3886" x1="720" y1="-2682.41" x2="721.082" y2="792.956" gradientUnits="userSpaceOnUse">
<stop stop-color="#DC4361"/>
<stop offset="1" stop-color="white"/>
</linearGradient>
</defs>
</svg>
