<svg width="32" height="32" viewBox="0 0 32 32" fill="none" xmlns="http://www.w3.org/2000/svg">
<rect width="32" height="32" rx="4" fill="#5A4F43"/>
<g clip-path="url(#clip0_483_51636)">
<path d="M24 19.4286V8.57143C24 7.62608 23.2321 6.85715 22.2857 6.85715H10.8571C9.28179 6.85715 8 8.13858 8 9.71429V22.2857C8 23.8607 9.28179 25.1429 10.8571 25.1429H23.1429C23.6161 25.1429 24 24.7589 24 24.2857C24 23.8125 23.6161 23.4286 23.1429 23.4286H22.8571V21.0375C23.5214 20.8 24 20.1714 24 19.4286ZM21.1429 23.4286H10.8571C10.2271 23.4286 9.71429 22.9164 9.71429 22.2857C9.71429 21.655 10.2271 21.1429 10.8571 21.1429H21.1429V23.4286ZM22.2857 19.4286H10.8571C10.4507 19.4286 10.0643 19.5134 9.71429 19.6674V9.71429C9.71429 9.08358 10.2271 8.57143 10.8571 8.57143H22.2857V19.4286ZM13.4286 12.5714H19.7143C20.1893 12.5714 20.5714 12.1893 20.5714 11.7143C20.5714 11.2393 20.1893 10.8571 19.7143 10.8571H13.4286C12.9571 10.8571 12.5714 11.2429 12.5714 11.7143C12.5714 12.1857 12.9571 12.5714 13.4286 12.5714ZM13.4286 15.4286H19.7143C20.1893 15.4286 20.5714 15.0464 20.5714 14.5714C20.5714 14.0964 20.1893 13.7143 19.7143 13.7143H13.4286C12.9571 13.7143 12.5714 14.1 12.5714 14.5714C12.5714 15.0429 12.9571 15.4286 13.4286 15.4286Z" fill="#EEA956"/>
</g>
<defs>
<clipPath id="clip0_483_51636">
<rect width="16" height="18.2857" fill="white" transform="translate(8 6.85715)"/>
</clipPath>
</defs>
</svg>
