<svg width="24" height="24" viewBox="0 0 24 24" fill="none" xmlns="http://www.w3.org/2000/svg">
<path d="M20 12.0501C19.9813 10.5256 19.5273 9.03815 18.6915 7.76301C17.8557 6.48787 16.673 5.4781 15.2826 4.85263C13.8921 4.22716 12.3519 4.01204 10.8433 4.23259C9.33473 4.45315 7.92057 5.1002 6.7674 6.09754C5.61422 7.09488 4.77005 8.40098 4.3343 9.86201C3.89856 11.3231 3.88938 12.8782 4.30786 14.3443C4.72634 15.8103 5.55504 17.1263 6.69637 18.1372C7.83769 19.1481 9.24412 19.8117 10.75 20.0501V14.3801H8.75001V12.0501H10.75V10.2801C10.7037 9.86852 10.7483 9.45181 10.8807 9.05937C11.0131 8.66694 11.23 8.30833 11.5161 8.00888C11.8022 7.70942 12.1505 7.47641 12.5365 7.3263C12.9225 7.17618 13.3368 7.11261 13.75 7.14009C14.3498 7.1483 14.9482 7.20179 15.54 7.30009V9.30009H14.54C14.3676 9.27834 14.1924 9.29562 14.0276 9.35065C13.8627 9.40568 13.7123 9.49705 13.5875 9.61801C13.4627 9.73898 13.3667 9.88644 13.3066 10.0495C13.2464 10.2126 13.2237 10.3871 13.24 10.5601V12.0701H15.46L15.1 14.4001H13.25V20.0001C15.1399 19.7012 16.8601 18.7347 18.0985 17.2762C19.3369 15.8176 20.0115 13.9635 20 12.0501Z" fill="#DC4361"/>
</svg>
