<svg width="33" height="32" viewBox="0 0 33 32" fill="none" xmlns="http://www.w3.org/2000/svg">
<rect width="32.0024" height="32" rx="4" fill="#473E3B"/>
<g clip-path="url(#clip0_104_4103)">
<path d="M17.8212 9.63C17.3962 9.5075 16.9537 9.755 16.8312 10.18L13.6312 21.38C13.5087 21.805 13.7562 22.2475 14.1812 22.37C14.6062 22.4925 15.0487 22.245 15.1712 21.82L18.3712 10.62C18.4937 10.195 18.2462 9.7525 17.8212 9.63ZM19.8362 12.6325C19.5237 12.945 19.5237 13.4525 19.8362 13.765L22.0687 16L19.8337 18.235C19.5212 18.5475 19.5212 19.055 19.8337 19.3675C20.1462 19.68 20.6537 19.68 20.9662 19.3675L23.7662 16.5675C24.0787 16.255 24.0787 15.7475 23.7662 15.435L20.9662 12.635C20.6537 12.3225 20.1462 12.3225 19.8337 12.635L19.8362 12.6325ZM12.1687 12.6325C11.8562 12.32 11.3487 12.32 11.0362 12.6325L8.23621 15.4325C7.92371 15.745 7.92371 16.2525 8.23621 16.565L11.0362 19.365C11.3487 19.6775 11.8562 19.6775 12.1687 19.365C12.4812 19.0525 12.4812 18.545 12.1687 18.2325L9.93371 16L12.1687 13.765C12.4812 13.4525 12.4812 12.945 12.1687 12.6325Z" fill="#FF8F67"/>
</g>
<defs>
<clipPath id="clip0_104_4103">
<rect width="16" height="12.8" fill="white" transform="translate(8.00121 9.60001)"/>
</clipPath>
</defs>
</svg>
