<svg width="580" height="580" viewBox="0 0 580 580" fill="none" xmlns="http://www.w3.org/2000/svg">
<path d="M448.607 168.478C448.607 168.478 411.22 118.378 349.16 114.84C287.1 111.302 252.486 153.642 227.082 185.403C201.678 217.163 124.77 198.801 78.1956 247.497C31.6216 296.194 54.2068 324.405 74.7156 352.628C95.2244 380.851 114.84 385.12 114.84 408.389C114.84 431.659 126.138 462.724 170.59 469.777C215.041 476.829 260.907 433.817 292.656 450.057C324.406 466.297 377.684 478.987 410.327 469.777C442.969 460.566 433.074 426.729 468.327 415.442C503.579 404.155 537.474 368.868 532.533 330.762C527.591 292.656 499.368 285.603 487.374 248.913C475.38 212.222 458.49 183.999 448.607 168.478Z" fill="#DC4361"/>
<path opacity="0.7" d="M448.607 168.478C448.607 168.478 411.22 118.378 349.16 114.84C287.1 111.302 252.486 153.642 227.082 185.403C201.678 217.163 124.77 198.801 78.1956 247.497C31.6216 296.194 54.2068 324.405 74.7156 352.628C95.2244 380.851 114.84 385.12 114.84 408.389C114.84 431.659 126.138 462.724 170.59 469.777C215.041 476.829 260.907 433.817 292.656 450.057C324.406 466.297 377.684 478.987 410.327 469.777C442.969 460.566 433.074 426.729 468.327 415.442C503.579 404.155 537.474 368.868 532.533 330.762C527.591 292.656 499.368 285.603 487.374 248.913C475.38 212.222 458.49 183.999 448.607 168.478Z" fill="white"/>
<path d="M491.121 477.711C491.121 479.764 426.161 481.423 346.121 481.423C266.081 481.423 201.121 479.764 201.121 477.711C201.121 475.658 266.081 474.011 346.121 474.011C426.161 474.011 491.121 475.67 491.121 477.711Z" fill="#2E353A"/>
<path d="M376.397 133.69H240.155C235.914 133.69 232.476 137.128 232.476 141.369V194.625C232.476 198.866 235.914 202.304 240.155 202.304H376.397C380.638 202.304 384.076 198.866 384.076 194.625V141.369C384.076 137.128 380.638 133.69 376.397 133.69Z" fill="#DC4361"/>
<path d="M232.476 190.24V215.006L246.291 199.102" fill="#DC4361"/>
<path d="M376.408 133.69H240.12C239.112 133.69 238.114 133.889 237.183 134.275C236.252 134.661 235.406 135.227 234.694 135.94C233.982 136.653 233.417 137.5 233.033 138.431C232.648 139.363 232.451 140.361 232.452 141.369V215.006L243.496 202.304H376.408C377.416 202.304 378.414 202.105 379.345 201.719C380.276 201.333 381.122 200.767 381.834 200.054C382.546 199.341 383.111 198.494 383.496 197.563C383.88 196.631 384.078 195.633 384.076 194.625V141.369C384.078 140.361 383.88 139.363 383.496 138.431C383.111 137.5 382.546 136.653 381.834 135.94C381.122 135.227 380.276 134.661 379.345 134.275C378.414 133.889 377.416 133.69 376.408 133.69Z" fill="#DC4361"/>
<path opacity="0.1" d="M376.408 133.69H240.12C239.112 133.69 238.114 133.889 237.183 134.275C236.252 134.661 235.406 135.227 234.694 135.94C233.982 136.653 233.417 137.5 233.033 138.431C232.648 139.363 232.451 140.361 232.452 141.369V215.006L243.496 202.304H376.408C377.416 202.304 378.414 202.105 379.345 201.719C380.276 201.333 381.122 200.767 381.834 200.054C382.546 199.341 383.111 198.494 383.496 197.563C383.88 196.631 384.078 195.633 384.076 194.625V141.369C384.078 140.361 383.88 139.363 383.496 138.431C383.111 137.5 382.546 136.653 381.834 135.94C381.122 135.227 380.276 134.661 379.345 134.275C378.414 133.889 377.416 133.69 376.408 133.69Z" fill="#DC4361"/>
<path d="M349.16 171.332H251.268C250.542 171.332 249.845 171.043 249.332 170.53C248.818 170.017 248.53 169.32 248.53 168.594C248.533 167.87 248.823 167.177 249.336 166.666C249.849 166.155 250.544 165.868 251.268 165.868H349.16C349.884 165.868 350.579 166.155 351.092 166.666C351.605 167.177 351.895 167.87 351.898 168.594C351.898 168.954 351.827 169.31 351.689 169.642C351.552 169.974 351.35 170.276 351.096 170.53C350.842 170.784 350.54 170.986 350.208 171.123C349.876 171.261 349.52 171.332 349.16 171.332Z" fill="white"/>
<path d="M349.16 183.906H251.268C250.908 183.906 250.552 183.836 250.22 183.698C249.888 183.56 249.586 183.359 249.332 183.105C249.078 182.85 248.876 182.549 248.738 182.216C248.601 181.884 248.53 181.528 248.53 181.169C248.533 180.445 248.823 179.751 249.336 179.241C249.849 178.73 250.544 178.443 251.268 178.443H349.16C349.884 178.443 350.579 178.73 351.092 179.241C351.605 179.751 351.895 180.445 351.898 181.169C351.898 181.528 351.827 181.884 351.689 182.216C351.552 182.549 351.35 182.85 351.096 183.105C350.842 183.359 350.54 183.56 350.208 183.698C349.876 183.836 349.52 183.906 349.16 183.906Z" fill="white"/>
<path d="M256.731 158.758C262.164 158.758 266.568 154.354 266.568 148.921C266.568 143.488 262.164 139.084 256.731 139.084C251.299 139.084 246.894 143.488 246.894 148.921C246.894 154.354 251.299 158.758 256.731 158.758Z" fill="white"/>
<path d="M376.397 226.548H240.155C235.914 226.548 232.476 229.986 232.476 234.227V287.483C232.476 291.724 235.914 295.162 240.155 295.162H376.397C380.638 295.162 384.076 291.724 384.076 287.483V234.227C384.076 229.986 380.638 226.548 376.397 226.548Z" fill="#DC4361"/>
<path d="M232.476 283.086V307.864L246.291 291.949" fill="#DC4361"/>
<path d="M376.408 226.548H240.12C238.086 226.548 236.136 227.356 234.698 228.794C233.26 230.232 232.452 232.182 232.452 234.215V307.864L243.496 295.104H376.408C378.442 295.104 380.392 294.296 381.83 292.858C383.268 291.42 384.076 289.47 384.076 287.436V234.215C384.076 232.182 383.268 230.232 381.83 228.794C380.392 227.356 378.442 226.548 376.408 226.548Z" fill="#DC4361"/>
<path opacity="0.1" d="M376.408 226.548H240.12C238.086 226.548 236.136 227.356 234.698 228.794C233.26 230.232 232.452 232.182 232.452 234.215V307.864L243.496 295.104H376.408C378.442 295.104 380.392 294.296 381.83 292.858C383.268 291.42 384.076 289.47 384.076 287.436V234.215C384.076 232.182 383.268 230.232 381.83 228.794C380.392 227.356 378.442 226.548 376.408 226.548Z" fill="#DC4361"/>
<path d="M349.16 264.178H251.268C250.544 264.178 249.849 263.892 249.336 263.381C248.823 262.87 248.533 262.176 248.53 261.452C248.53 260.726 248.818 260.03 249.332 259.517C249.845 259.003 250.542 258.715 251.268 258.715H349.16C349.52 258.715 349.876 258.786 350.208 258.923C350.54 259.061 350.842 259.262 351.096 259.517C351.35 259.771 351.552 260.073 351.689 260.405C351.827 260.737 351.898 261.093 351.898 261.452C351.895 262.176 351.605 262.87 351.092 263.381C350.579 263.892 349.884 264.178 349.16 264.178Z" fill="white"/>
<path d="M349.16 276.753H251.268C250.544 276.753 249.849 276.466 249.336 275.955C248.823 275.444 248.533 274.751 248.53 274.027C248.53 273.301 248.818 272.604 249.332 272.091C249.845 271.577 250.542 271.289 251.268 271.289H349.16C349.52 271.289 349.876 271.36 350.208 271.497C350.54 271.635 350.842 271.837 351.096 272.091C351.35 272.345 351.552 272.647 351.689 272.979C351.827 273.311 351.898 273.667 351.898 274.027C351.895 274.751 351.605 275.444 351.092 275.955C350.579 276.466 349.884 276.753 349.16 276.753Z" fill="white"/>
<path d="M256.731 251.604C262.164 251.604 266.568 247.2 266.568 241.767C266.568 236.334 262.164 231.93 256.731 231.93C251.299 231.93 246.894 236.334 246.894 241.767C246.894 247.2 251.299 251.604 256.731 251.604Z" fill="white"/>
<path d="M127.194 362.5C127.09 362.5 126.626 355.227 126.649 354.763C126.916 349.392 130.604 339.161 136.439 337.606C137.413 337.373 138.425 337.349 139.41 337.533C140.394 337.718 141.328 338.109 142.151 338.679C142.974 339.249 143.668 339.987 144.187 340.843C144.706 341.7 145.038 342.656 145.162 343.65C145.835 347.849 143.098 352.327 140.325 355.25C137.054 358.637 127.194 362.5 127.194 362.5Z" fill="#2E353A"/>
<path d="M119.584 334.474C119.48 334.474 120.118 327.213 120.211 326.749C121.301 321.482 126.498 311.924 132.484 311.274C133.482 311.193 134.486 311.322 135.431 311.654C136.376 311.986 137.241 312.513 137.968 313.202C138.696 313.89 139.271 314.724 139.655 315.649C140.039 316.574 140.224 317.569 140.198 318.571C140.198 322.828 136.845 326.842 133.667 329.289C129.92 332.166 119.584 334.474 119.584 334.474Z" fill="#2E353A"/>
<path d="M117.659 301.403C117.554 301.403 118.204 294.141 118.297 293.677C119.376 288.411 124.572 278.852 130.57 278.203C131.567 278.121 132.571 278.25 133.516 278.582C134.46 278.914 135.324 279.442 136.051 280.13C136.777 280.819 137.351 281.653 137.734 282.578C138.116 283.503 138.3 284.498 138.272 285.499C138.272 289.756 134.931 293.758 131.741 296.217C127.994 299.094 117.67 301.403 117.659 301.403Z" fill="#2E353A"/>
<path d="M114.33 270.28C114.225 270.28 114.875 263.007 114.968 262.554C116.046 257.276 121.243 247.73 127.24 247.068C128.239 246.988 129.243 247.119 130.187 247.453C131.132 247.786 131.995 248.315 132.722 249.004C133.448 249.694 134.022 250.528 134.404 251.454C134.787 252.379 134.97 253.375 134.943 254.376C134.943 258.622 131.602 262.636 128.412 265.083C124.665 267.96 114.341 270.28 114.33 270.28Z" fill="#2E353A"/>
<path d="M104.4 245.305C104.307 245.305 103.008 238.148 102.973 237.684C102.625 232.313 105.119 221.722 110.722 219.518C111.663 219.175 112.665 219.034 113.664 219.104C114.663 219.174 115.636 219.454 116.52 219.926C117.403 220.398 118.177 221.051 118.791 221.842C119.405 222.633 119.845 223.545 120.083 224.518C121.243 228.613 119.039 233.369 116.603 236.57C113.773 240.34 104.4 245.305 104.4 245.305Z" fill="#2E353A"/>
<path d="M124.12 362.581C124.236 362.581 121.069 355.957 120.814 355.563C117.949 351.016 109.724 343.893 103.89 345.39C102.928 345.665 102.034 346.139 101.268 346.782C100.502 347.425 99.8792 348.222 99.4414 349.122C99.0037 350.021 98.7603 351.003 98.7273 352.003C98.6942 353.003 98.8722 353.999 99.2496 354.925C100.711 358.927 105.282 361.491 109.133 362.662C113.68 364.043 124.12 362.581 124.12 362.581Z" fill="#2E353A"/>
<path d="M118.03 330.727C118.146 330.727 114.005 324.649 113.703 324.301C110.223 320.229 100.943 314.441 95.4332 316.796C94.5214 317.212 93.7076 317.815 93.0451 318.567C92.3826 319.319 91.8862 320.202 91.5884 321.159C91.2906 322.116 91.1981 323.125 91.3169 324.12C91.4357 325.115 91.7632 326.074 92.278 326.934C94.3196 330.658 99.238 332.502 103.217 333.082C107.88 333.755 118.03 330.727 118.03 330.727Z" fill="#2E353A"/>
<path d="M116.278 299.524C116.383 299.524 112.253 293.445 111.952 293.097C108.472 289.026 99.1916 283.237 93.67 285.604C92.7484 286.017 91.925 286.621 91.2542 287.376C90.5835 288.131 90.0807 289.02 89.7792 289.984C89.4776 290.948 89.3841 291.964 89.505 292.967C89.6258 293.97 89.9581 294.935 90.48 295.8C92.5332 299.524 97.44 301.368 101.43 301.937C106.128 302.563 116.278 299.535 116.278 299.524Z" fill="#2E353A"/>
<path d="M113.274 270.895C113.39 270.895 109.249 264.816 108.947 264.468C105.467 260.397 96.1872 254.608 90.6772 256.963C89.7654 257.379 88.9517 257.983 88.2891 258.735C87.6266 259.487 87.1302 260.37 86.8324 261.327C86.5346 262.284 86.4421 263.293 86.5609 264.288C86.6798 265.283 87.0073 266.242 87.522 267.102C89.5636 270.837 94.482 272.67 98.4608 273.25C103.124 273.922 113.274 270.895 113.274 270.895Z" fill="#2E353A"/>
<path d="M104.47 246.245C104.574 246.245 99.8296 240.654 99.4584 240.329C95.5144 236.675 85.724 231.93 80.4692 234.888C79.6064 235.402 78.8621 236.093 78.2849 236.914C77.7078 237.736 77.3109 238.67 77.1203 239.656C76.9297 240.642 76.9497 241.657 77.179 242.635C77.4083 243.612 77.8417 244.53 78.4508 245.328C80.8984 248.808 85.9792 250.108 90.0508 250.235C94.714 250.374 104.47 246.256 104.47 246.245Z" fill="#2E353A"/>
<path d="M91.814 225.875C91.9184 225.875 90.248 218.753 90.0972 218.312C88.276 213.243 81.78 204.531 75.748 204.728C74.7482 204.789 73.7724 205.06 72.8842 205.523C71.9959 205.985 71.215 206.63 70.5924 207.415C69.9698 208.199 69.5193 209.106 69.2704 210.076C69.0215 211.046 68.9796 212.058 69.1476 213.046C69.7276 217.268 73.6368 220.748 77.14 222.72C81.258 225.04 91.8024 225.875 91.814 225.875Z" fill="#2E353A"/>
<path d="M137.332 400.084C137.332 400.084 136.091 397.242 134.142 392.265C132.194 387.289 129.502 380.109 126.649 371.385C125.222 367.024 123.772 362.268 122.357 357.199C121.638 354.647 120.988 352.083 120.28 349.334C119.979 347.988 119.689 346.631 119.387 345.262C119.086 343.893 118.877 342.443 118.622 341.017C117.706 335.165 117.113 329.267 116.847 323.35C116.557 317.329 116.441 311.239 116.29 305.149C116.139 299.059 115.988 292.993 115.501 287.053C115.076 281.237 114.243 275.457 113.007 269.758C111.763 264.45 110.047 259.263 107.88 254.26C105.945 249.759 103.749 245.374 101.303 241.129C99.064 237.15 96.7672 233.659 94.714 230.573C92.6608 227.487 90.7352 224.889 89.1228 222.766C85.898 218.521 83.8796 216.247 83.8796 216.247C83.8796 216.247 85.9444 218.486 89.2736 222.65C90.9208 224.75 92.8928 227.29 95.0736 230.353C97.2544 233.415 99.5744 236.849 101.906 240.793C104.477 245.012 106.801 249.377 108.866 253.866C111.18 258.881 113.047 264.09 114.446 269.433C115.822 275.158 116.795 280.972 117.357 286.833C117.972 292.83 118.285 298.932 118.517 305.022C118.749 311.112 119.039 317.179 119.457 323.129C119.848 328.932 120.552 334.71 121.568 340.437C121.858 341.817 122.032 343.163 122.392 344.531C122.751 345.9 123.053 347.246 123.378 348.58C124.097 351.12 124.828 353.765 125.593 356.236C127.09 361.212 128.632 365.887 130.14 370.156C133.133 378.74 135.94 385.769 137.994 390.665C140.047 395.56 141.311 398.274 141.311 398.274C141.502 398.776 141.496 399.331 141.295 399.829C141.093 400.326 140.71 400.729 140.223 400.955C139.736 401.182 139.182 401.215 138.671 401.049C138.161 400.883 137.732 400.53 137.472 400.061L137.332 400.084Z" fill="#2E353A"/>
<path d="M164.65 355.122C164.546 355.122 166.182 347.988 166.332 347.547C168.119 342.478 174.568 333.72 180.589 333.883C181.589 333.936 182.566 334.2 183.457 334.657C184.348 335.113 185.133 335.753 185.76 336.533C186.387 337.314 186.843 338.218 187.097 339.186C187.351 340.154 187.398 341.165 187.236 342.153C186.69 346.376 182.804 349.891 179.313 351.886C175.16 354.229 164.72 355.122 164.65 355.122Z" fill="#2E353A"/>
<path d="M165.323 326.099C165.219 326.099 167.91 319.279 168.13 318.873C170.671 314.117 178.362 306.437 184.289 307.516C185.27 307.721 186.196 308.13 187.008 308.717C187.82 309.304 188.499 310.055 189.001 310.922C189.503 311.789 189.817 312.751 189.923 313.747C190.029 314.744 189.923 315.751 189.614 316.703C188.454 320.798 184.057 323.663 180.334 325.113C175.891 326.807 165.335 326.099 165.323 326.099Z" fill="#2E353A"/>
<path d="M172.84 293.839C172.724 293.839 175.415 287.019 175.636 286.613C178.176 281.868 185.878 274.189 191.806 275.256C192.787 275.462 193.713 275.873 194.525 276.461C195.336 277.049 196.015 277.802 196.516 278.67C197.017 279.538 197.33 280.501 197.434 281.498C197.538 282.495 197.43 283.502 197.119 284.455C195.959 288.538 191.562 291.415 187.839 292.865C183.454 294.559 172.84 293.839 172.84 293.839Z" fill="#2E353A"/>
<path d="M178.536 263.065C178.42 263.065 181.111 256.256 181.331 255.838C183.872 251.094 191.574 243.414 197.502 244.493C198.482 244.698 199.408 245.107 200.22 245.694C201.031 246.281 201.71 247.033 202.211 247.9C202.712 248.767 203.025 249.73 203.129 250.726C203.233 251.722 203.126 252.729 202.814 253.68C201.654 257.775 197.258 260.64 193.534 262.09C189.08 263.784 178.536 263.065 178.536 263.065Z" fill="#2E353A"/>
<path d="M176.134 236.281C176.018 236.281 176.819 229.031 176.923 228.578C178.083 223.323 183.512 213.881 189.521 213.359C190.52 213.299 191.521 213.45 192.458 213.803C193.395 214.155 194.247 214.701 194.96 215.405C195.672 216.108 196.228 216.954 196.592 217.886C196.956 218.819 197.12 219.818 197.072 220.818C197.072 225.075 193.592 229.007 190.321 231.385C186.516 234.181 176.134 236.281 176.134 236.281Z" fill="#2E353A"/>
<path d="M161.727 354.333C161.832 354.333 160.672 347.118 160.567 346.677C159.117 341.492 153.259 332.328 147.239 332.096C146.236 332.085 145.243 332.285 144.323 332.683C143.403 333.082 142.578 333.669 141.9 334.408C141.223 335.147 140.709 336.02 140.391 336.971C140.074 337.922 139.961 338.929 140.058 339.926C140.325 344.172 143.979 347.93 147.332 350.146C151.252 352.756 161.716 354.333 161.727 354.333Z" fill="#2E353A"/>
<path d="M164.906 322.062C165.022 322.062 162.771 315.102 162.586 314.662C160.358 309.755 153.178 301.588 147.192 302.273C146.201 302.414 145.25 302.763 144.402 303.297C143.554 303.83 142.827 304.536 142.27 305.369C141.713 306.202 141.338 307.143 141.169 308.13C140.999 309.118 141.04 310.13 141.288 311.1C142.193 315.253 146.38 318.42 150.023 320.102C154.28 322.086 164.894 322.062 164.906 322.062Z" fill="#2E353A"/>
<path d="M172.098 291.647C172.202 291.647 169.963 284.687 169.778 284.246C167.562 279.351 160.382 271.185 154.396 271.869C153.401 272.009 152.446 272.357 151.595 272.891C150.743 273.426 150.014 274.134 149.456 274.969C148.897 275.805 148.522 276.749 148.353 277.74C148.185 278.731 148.228 279.747 148.48 280.72C149.396 284.884 153.572 288.039 157.226 289.721C161.507 291.67 172.086 291.647 172.098 291.647Z" fill="#2E353A"/>
<path d="M177.352 263.32C177.468 263.32 175.218 256.36 175.032 255.919C172.805 251.024 165.636 242.846 159.639 243.542C158.648 243.682 157.697 244.03 156.849 244.562C156.001 245.094 155.275 245.799 154.718 246.631C154.16 247.463 153.785 248.403 153.616 249.39C153.446 250.377 153.487 251.388 153.735 252.358C154.64 256.523 158.827 259.678 162.481 261.36C166.762 263.32 177.352 263.32 177.352 263.32Z" fill="#2E353A"/>
<path d="M175.914 237.208C176.03 237.208 173.037 230.515 172.794 230.109C170.044 225.469 162.017 218.149 156.136 219.495C155.166 219.744 154.258 220.194 153.474 220.817C152.689 221.44 152.045 222.221 151.583 223.11C151.121 223.999 150.852 224.976 150.793 225.976C150.734 226.976 150.886 227.977 151.241 228.914C152.598 232.939 157.099 235.619 160.915 236.895C165.393 238.391 175.914 237.208 175.914 237.208Z" fill="#2E353A"/>
<path d="M169.58 214.078C169.673 214.078 170.102 206.805 170.068 206.341C169.766 200.958 166.019 190.75 160.184 189.231C159.209 189.005 158.196 188.988 157.213 189.18C156.23 189.372 155.299 189.768 154.479 190.344C153.66 190.919 152.97 191.661 152.456 192.52C151.942 193.38 151.615 194.338 151.496 195.332C150.846 199.543 153.607 203.998 156.403 206.932C159.686 210.273 169.569 214.066 169.58 214.078Z" fill="#2E353A"/>
<path d="M163.699 394.04C163.699 394.04 163.305 390.966 162.852 385.63C162.4 380.294 161.855 372.662 161.611 363.486C161.484 358.846 161.437 353.928 161.53 348.661C161.53 346.016 161.669 343.372 161.774 340.541C161.866 339.172 161.971 337.78 162.064 336.388C162.156 334.996 162.388 333.535 162.539 332.096C163.334 326.241 164.446 320.432 165.868 314.696C167.295 308.838 168.919 302.957 170.508 297.088C172.098 291.218 173.664 285.348 174.893 279.502C176.138 273.807 176.98 268.031 177.41 262.218C177.709 256.772 177.523 251.31 176.854 245.897C176.281 241.029 175.421 236.198 174.278 231.432C173.258 226.977 172.063 222.975 170.972 219.437C169.882 215.899 168.757 212.848 167.829 210.366C165.938 205.378 164.65 202.617 164.65 202.617C164.65 202.617 165.996 205.355 167.991 210.296C168.989 212.767 170.137 215.795 171.344 219.31C172.55 222.824 173.803 226.826 174.916 231.269C176.169 236.042 177.141 240.883 177.828 245.769C178.626 251.237 178.937 256.765 178.756 262.288C178.446 268.185 177.721 274.054 176.587 279.85C175.427 285.766 174.035 291.705 172.562 297.621C171.088 303.537 169.604 309.43 168.316 315.253C167.037 320.927 166.069 326.665 165.416 332.444C165.3 333.848 165.091 335.182 165.045 336.597C164.998 338.012 164.906 339.393 164.836 340.762C164.836 343.406 164.755 346.144 164.836 348.731C164.836 353.939 165.01 358.858 165.242 363.393C165.671 372.476 166.402 380.028 166.947 385.282C167.492 390.537 167.956 393.53 167.956 393.53C167.997 393.805 167.983 394.085 167.915 394.355C167.847 394.624 167.726 394.878 167.561 395.101C167.395 395.324 167.186 395.512 166.948 395.654C166.709 395.797 166.445 395.891 166.17 395.931C165.895 395.972 165.615 395.957 165.345 395.889C165.076 395.822 164.822 395.701 164.599 395.535C164.376 395.369 164.188 395.161 164.046 394.923C163.903 394.684 163.809 394.42 163.769 394.145V394.087L163.699 394.04Z" fill="#2E353A"/>
<path d="M177.155 470.74H128.041L114.225 390.305H190.971L177.155 470.74Z" fill="#2E353A"/>
<path d="M263.668 478.349C322.653 478.349 370.469 430.532 370.469 371.548C370.469 312.563 322.653 264.747 263.668 264.747C204.683 264.747 156.867 312.563 156.867 371.548C156.867 430.532 204.683 478.349 263.668 478.349Z" fill="#DC4361"/>
<path d="M263.668 478.883C242.439 478.883 221.687 472.587 204.036 460.793C186.385 448.999 172.627 432.236 164.504 412.623C156.38 393.01 154.254 371.429 158.396 350.608C162.537 329.787 172.76 310.662 187.771 295.651C202.782 280.64 221.907 270.417 242.728 266.275C263.549 262.134 285.13 264.259 304.743 272.383C324.356 280.507 341.119 294.265 352.914 311.916C364.708 329.567 371.003 350.319 371.003 371.548C370.969 400.004 359.65 427.286 339.528 447.408C319.406 467.529 292.125 478.849 263.668 478.883ZM263.668 265.269C242.648 265.269 222.1 271.502 204.622 283.18C187.145 294.858 173.523 311.456 165.479 330.876C157.435 350.296 155.33 371.666 159.431 392.282C163.532 412.898 173.654 431.835 188.517 446.698C203.381 461.562 222.318 471.684 242.934 475.785C263.55 479.886 284.919 477.781 304.339 469.737C323.759 461.693 340.358 448.071 352.036 430.593C363.714 413.116 369.947 392.568 369.947 371.548C369.92 343.369 358.713 316.353 338.788 296.428C318.863 276.502 291.846 265.296 263.668 265.269Z" fill="#2E353A"/>
<path d="M235.376 441.786C226.341 438.452 218.06 433.354 211.016 426.787C203.909 419.956 198.403 411.637 194.892 402.427C190.91 392.1 188.937 381.107 189.08 370.04C189.004 360.59 190.671 351.207 193.998 342.362C197.006 334.249 201.512 326.772 207.28 320.322C218.68 307.823 233.421 298.85 249.76 294.466C257.776 292.315 266.04 291.223 274.34 291.218C281.227 291.193 288.091 292.011 294.779 293.654C301.242 295.253 307.428 297.815 313.13 301.252C318.766 304.644 323.815 308.926 328.083 313.931C332.548 319.308 335.953 325.484 338.117 332.131C340.622 339.698 341.857 347.627 341.771 355.598C341.684 370.932 336.192 385.744 326.262 397.427C321.969 402.33 316.869 406.461 311.182 409.642C306.287 412.481 300.749 414.022 295.092 414.12C291.21 414.167 287.418 412.945 284.293 410.64C282.715 409.481 281.431 407.969 280.542 406.224C279.654 404.48 279.187 402.552 279.177 400.594C272.557 409.921 263.602 414.584 252.312 414.584C243.117 414.584 235.77 411.44 230.272 405.153C224.773 398.866 222.036 391.133 222.059 381.953C222.084 374.97 223.3 368.042 225.655 361.467C227.959 354.82 231.26 348.562 235.445 342.907C239.599 337.331 244.904 332.714 251.001 329.37C257.08 325.936 263.947 324.137 270.93 324.15C275.781 324.101 280.567 325.27 284.85 327.549C289.023 329.763 292.407 333.216 294.536 337.432L295.44 334.486C295.854 333.248 296.554 332.126 297.484 331.21C298.414 330.294 299.547 329.611 300.791 329.217C302.035 328.822 303.354 328.727 304.642 328.939C305.93 329.151 307.149 329.665 308.2 330.437C308.871 330.985 309.404 331.683 309.755 332.476C310.105 333.268 310.264 334.131 310.219 334.996C310.22 335.825 310.083 336.648 309.813 337.432L295.417 385.282C293.793 390.757 292.981 394.512 292.981 396.546C292.981 399.995 294.741 401.716 298.259 401.708C302.853 401.708 307.365 399.597 311.796 395.374C316.571 390.61 320.255 384.868 322.596 378.543C325.352 371.623 326.761 364.241 326.749 356.793C326.816 350.23 325.857 343.698 323.907 337.432C322.289 332.029 319.707 326.963 316.286 322.48C313.037 318.395 309.114 314.895 304.686 312.133C300.264 309.349 295.44 307.263 290.383 305.95C285.201 304.599 279.869 303.917 274.514 303.92C267.706 303.928 260.932 304.885 254.388 306.762C247.669 308.685 241.265 311.572 235.376 315.334C229.436 319.085 224.058 323.658 219.402 328.918C214.6 334.456 210.857 340.83 208.359 347.721C205.581 355.235 204.19 363.19 204.253 371.2C204.102 380.688 205.825 390.114 209.322 398.935C212.307 406.586 217.047 413.428 223.161 418.911C229.055 424.039 235.863 428.01 243.229 430.615C250.994 433.364 259.178 434.738 267.415 434.675C276.22 434.691 284.975 433.357 293.376 430.719C294.223 430.433 295.114 430.296 296.009 430.313C296.859 430.279 297.707 430.429 298.494 430.753C299.281 431.078 299.989 431.569 300.568 432.193C301.68 433.349 302.3 434.892 302.296 436.496C302.406 437.787 302.045 439.074 301.279 440.119C300.514 441.164 299.395 441.896 298.132 442.18C287.648 445.388 276.754 447.06 265.791 447.145C255.411 447.223 245.104 445.407 235.376 441.786ZM272.032 395.757C276.405 392.601 279.657 388.131 281.312 382.997L290.592 350.355L289.977 349.032C289.387 347.956 288.674 346.952 287.854 346.039C286.745 344.765 285.539 343.578 284.246 342.49C282.586 341.153 280.701 340.124 278.678 339.451C273.427 337.592 267.666 337.791 262.554 340.007C259.776 341.205 257.222 342.868 255.003 344.926C252.687 347.083 250.628 349.5 248.866 352.129C247.027 354.852 245.473 357.755 244.226 360.795C242.978 363.824 242.011 366.961 241.338 370.167C240.674 373.216 240.331 376.327 240.317 379.447C240.305 381.448 240.425 383.448 240.677 385.433C240.892 387.192 241.281 388.924 241.837 390.607C242.328 392.13 243.026 393.578 243.913 394.91C244.732 396.143 245.76 397.223 246.952 398.1C248.221 399.027 249.648 399.715 251.163 400.13C252.945 400.626 254.789 400.864 256.638 400.838C262.191 400.898 267.606 399.11 272.032 395.757Z" fill="#2E353A"/>
<path d="M408.912 281.729C408.912 281.729 405.432 288.202 404.921 289.107C404.411 290.011 402.543 294.907 403.1 296.067C403.657 297.227 404.19 297.888 405.292 298.073C406.394 298.259 407.299 300.266 409.12 300.625C410.267 300.853 411.432 300.977 412.6 300.997C412.887 301.207 413.218 301.349 413.568 301.411C413.918 301.474 414.277 301.455 414.619 301.356C415.709 300.997 416.626 300.451 417.356 297.343C417.803 295.803 417.925 294.188 417.716 292.598L417.391 286.323L408.912 281.729Z" fill="white"/>
<path d="M413.969 302.029C413.418 302.021 412.88 301.861 412.415 301.565C411.269 301.534 410.128 301.406 409.004 301.182C407.962 300.898 407.029 300.308 406.325 299.488C406.012 299.114 405.614 298.82 405.165 298.63C404.568 298.497 404.016 298.214 403.559 297.808C403.103 297.402 402.757 296.887 402.555 296.31C401.801 294.814 403.993 289.489 404.399 288.816C404.933 287.923 408.343 281.52 408.378 281.45C408.454 281.317 408.579 281.217 408.726 281.172C408.867 281.115 409.025 281.115 409.167 281.172L417.635 285.754C417.721 285.804 417.794 285.874 417.847 285.959C417.9 286.045 417.93 286.141 417.936 286.241L418.261 292.505C418.473 294.15 418.343 295.82 417.878 297.412C417.159 300.509 416.22 301.368 414.758 301.855C414.506 301.954 414.24 302.013 413.969 302.029ZM409.155 282.518C408.32 284.072 405.884 288.631 405.42 289.408C404.782 290.464 403.251 295.069 403.61 295.788C404.19 296.948 404.631 297.366 405.385 297.493C406.072 297.696 406.682 298.1 407.137 298.653C407.685 299.314 408.415 299.798 409.236 300.045C410.342 300.259 411.463 300.379 412.589 300.405C412.723 300.405 412.854 300.45 412.96 300.532C413.168 300.683 413.407 300.786 413.66 300.832C413.913 300.878 414.174 300.867 414.422 300.799C415.222 300.532 416.057 300.254 416.742 297.203C417.163 295.742 417.285 294.212 417.101 292.702L416.788 286.67L409.155 282.518Z" fill="#2E353A"/>
<path d="M429.026 456.019C429.026 456.019 424.073 464.081 424.073 466.03C424.073 467.979 430.894 471.563 433.817 472.862C436.74 474.161 441.937 475.182 446.159 475.785C450.382 476.389 459.151 478.105 456.599 474.811C454.047 471.517 438.364 462.84 437.714 461.807C436.91 460.843 436.008 459.965 435.023 459.186L429.026 456.019Z" fill="white"/>
<path d="M454.488 477.34C452.012 477.239 449.547 476.964 447.11 476.516L446.066 476.354C440.174 475.449 435.974 474.451 433.585 473.384C433.167 473.199 423.493 468.872 423.493 466.03C423.493 463.977 428.017 456.553 428.527 455.706C428.606 455.582 428.728 455.493 428.87 455.454C429.011 455.415 429.162 455.431 429.293 455.497L435.29 458.675C436.367 459.499 437.344 460.445 438.202 461.494C438.48 461.819 441.032 463.42 443.503 464.974C448.769 468.257 455.312 472.352 457.005 474.463C457.62 475.229 457.771 475.89 457.446 476.435C457.121 476.98 456.1 477.34 454.488 477.34ZM429.2 456.785C427.321 459.893 424.618 464.8 424.618 466.065C424.618 467.329 429.583 470.391 434.014 472.363C436.334 473.384 440.417 474.347 446.217 475.24L447.25 475.403C449.384 475.739 455.88 476.771 456.414 475.867C456.414 475.867 456.414 475.635 456.066 475.205C454.5 473.245 447.772 469.034 442.853 465.925C438.898 463.455 437.482 462.55 437.192 462.121C436.423 461.202 435.56 460.366 434.617 459.627L429.2 456.785Z" fill="#2E353A"/>
<path d="M436.786 468.721L438.526 471.32C440.398 474.159 442.94 476.493 445.927 478.117C450.567 480.623 457.713 483.488 463.954 481.771C474.185 478.952 448.433 463.42 448.433 463.42C448.433 463.42 439.257 469.8 436.786 468.721Z" fill="white"/>
<path d="M459.894 482.873C454.743 482.873 449.454 480.716 445.649 478.628C442.582 476.963 439.97 474.574 438.039 471.668L436.299 469.058C436.227 468.958 436.188 468.838 436.188 468.715C436.188 468.592 436.227 468.472 436.299 468.373C436.381 468.276 436.491 468.208 436.615 468.179C436.738 468.15 436.867 468.161 436.984 468.211C438.48 468.86 444.361 465.531 448.062 462.968C448.154 462.905 448.263 462.871 448.375 462.871C448.487 462.871 448.596 462.905 448.688 462.968C450.625 464.128 467.608 474.568 466.877 479.857C466.714 481.017 465.717 481.899 464.07 482.363C462.707 482.719 461.302 482.891 459.894 482.873ZM437.923 469.371L439.002 471.006C440.826 473.759 443.295 476.025 446.194 477.607C450.927 480.159 457.794 482.862 463.803 481.214C465.612 480.704 465.728 479.915 465.763 479.66C466.285 475.867 453.734 467.341 448.444 464.116C446.6 465.346 441.055 469 437.923 469.371Z" fill="#2E353A"/>
<path d="M439.733 469.951C442.551 474.214 446.822 477.31 451.75 478.662C460.16 481.063 462.573 480.46 464.371 478.059" fill="white"/>
<path d="M459.778 480.774C456.995 480.616 454.246 480.094 451.6 479.219C446.515 477.846 442.114 474.65 439.234 470.241C439.195 470.176 439.169 470.103 439.158 470.028C439.148 469.952 439.152 469.876 439.172 469.802C439.191 469.729 439.225 469.66 439.272 469.6C439.318 469.539 439.376 469.489 439.443 469.452C439.577 469.375 439.736 469.354 439.886 469.393C440.035 469.432 440.164 469.528 440.243 469.661C443.001 473.778 447.14 476.773 451.913 478.106C460.114 480.426 462.353 479.846 463.907 477.711C464.001 477.591 464.138 477.511 464.29 477.49C464.441 477.468 464.595 477.506 464.719 477.595C464.842 477.687 464.924 477.825 464.945 477.977C464.967 478.129 464.927 478.284 464.835 478.407C464.267 479.203 463.503 479.84 462.617 480.254C461.731 480.669 460.753 480.848 459.778 480.774Z" fill="#2E353A"/>
<path d="M424.711 464.545C424.711 464.545 433.991 471.192 438.526 471.319L424.711 464.545Z" fill="white"/>
<path d="M438.48 471.899C433.84 471.772 424.734 465.288 424.351 465.021C424.229 464.928 424.147 464.792 424.123 464.64C424.1 464.489 424.136 464.334 424.224 464.209C424.267 464.146 424.321 464.093 424.385 464.052C424.449 464.012 424.52 463.984 424.595 463.971C424.669 463.958 424.746 463.96 424.819 463.977C424.893 463.994 424.963 464.025 425.024 464.069C425.117 464.139 434.223 470.623 438.515 470.739C438.67 470.746 438.816 470.812 438.922 470.925C439.029 471.038 439.086 471.188 439.083 471.343C439.08 471.419 439.062 471.494 439.03 471.563C438.998 471.632 438.953 471.694 438.897 471.746C438.841 471.798 438.775 471.838 438.704 471.864C438.632 471.891 438.556 471.903 438.48 471.899Z" fill="#2E353A"/>
<path d="M404.562 283.956C404.562 283.956 412.798 297.609 414.561 300.776C416.324 303.943 438.55 329.358 447.366 351.236C456.182 373.114 464.661 392.857 464.302 399.214C463.942 405.57 435 459.186 435 459.186L429.003 456.019C429.003 456.019 438.167 405.559 437.123 400.269C436.079 394.98 403.68 342.408 403.68 342.408C403.68 342.408 388.507 331.829 382.162 319.475" fill="#2E353A"/>
<path d="M405.733 318.072C405.733 318.072 401.151 327.943 401.151 329.359C401.151 330.774 426.903 406.626 434.316 423.91C439.007 434.982 443.127 446.288 446.658 457.782C446.658 457.782 449.488 461.262 447.366 464.835C445.243 468.408 436.786 470.832 435.023 467.654C433.26 464.475 415.964 447.934 408.564 431.323C401.163 414.711 390.572 386.512 384.563 375.933C376.648 362.387 369.581 348.363 363.405 333.941C355.633 315.601 347.64 295.719 347.64 295.719C358.116 296.594 368.661 295.412 378.682 292.239C394.922 286.949 401.882 276.822 401.882 276.822C401.882 276.822 406.012 287.378 407.067 289.42" fill="#2E353A"/>
<path d="M408.158 347.861C408.077 347.86 407.999 347.835 407.933 347.789C407.867 347.744 407.816 347.68 407.786 347.605L399.666 326.493C399.638 326.415 399.635 326.33 399.655 326.25C399.676 326.169 399.72 326.096 399.782 326.041L408.877 318.246C408.954 318.174 409.055 318.134 409.161 318.134C409.266 318.134 409.368 318.174 409.445 318.246C409.516 318.321 409.556 318.421 409.556 318.524C409.556 318.628 409.516 318.727 409.445 318.803L400.56 326.424L408.575 347.304C408.614 347.402 408.612 347.512 408.571 347.61C408.53 347.707 408.452 347.785 408.355 347.826L408.158 347.861Z" fill="white"/>
<path d="M400.026 326.737C399.927 326.738 399.831 326.701 399.759 326.633C399.719 326.596 399.687 326.551 399.665 326.501C399.643 326.451 399.632 326.397 399.632 326.343C399.632 326.285 399.632 319.916 396.778 315.903C396.07 314.87 395.502 314.058 395.026 313.397C393.542 311.286 393.089 310.648 392.822 309.592C392.638 308.358 392.638 307.103 392.822 305.869C392.842 305.766 392.9 305.675 392.983 305.613C393.067 305.55 393.171 305.522 393.275 305.532C393.327 305.54 393.377 305.557 393.422 305.584C393.467 305.61 393.507 305.646 393.538 305.688C393.569 305.73 393.592 305.778 393.605 305.829C393.617 305.88 393.619 305.933 393.611 305.985C393.447 307.12 393.447 308.272 393.611 309.407C393.843 310.312 394.238 310.868 395.699 312.945C396.163 313.606 396.743 314.418 397.451 315.45C400.026 319.151 400.386 324.464 400.444 325.983L416.927 325.345C417.032 325.345 417.133 325.384 417.211 325.455C417.288 325.526 417.336 325.623 417.345 325.728C417.348 325.78 417.34 325.832 417.323 325.882C417.305 325.931 417.277 325.976 417.241 326.014C417.205 326.052 417.162 326.082 417.114 326.103C417.066 326.123 417.014 326.134 416.962 326.134L400.072 326.784L400.026 326.737Z" fill="white"/>
<path d="M455.265 401.835C447.922 401.835 438.596 397.079 438.178 396.871C438.086 396.821 438.017 396.738 437.987 396.637C437.956 396.537 437.967 396.429 438.016 396.337C438.039 396.29 438.072 396.249 438.111 396.215C438.151 396.181 438.197 396.155 438.246 396.139C438.296 396.122 438.348 396.116 438.4 396.12C438.453 396.125 438.503 396.139 438.55 396.163C438.654 396.221 449.256 401.627 456.518 400.989C456.571 400.984 456.624 400.99 456.674 401.006C456.725 401.022 456.771 401.049 456.811 401.083C456.851 401.118 456.884 401.16 456.907 401.208C456.931 401.255 456.944 401.307 456.947 401.36C456.952 401.412 456.946 401.464 456.931 401.514C456.915 401.563 456.89 401.609 456.857 401.649C456.823 401.689 456.782 401.722 456.736 401.746C456.69 401.77 456.639 401.785 456.588 401.789C456.158 401.824 455.718 401.835 455.265 401.835Z" fill="white"/>
<path d="M454.279 407.96H454.186C447.679 406.325 440.371 400.339 440.058 400.084C439.987 400.008 439.947 399.909 439.947 399.805C439.947 399.702 439.987 399.602 440.058 399.527C440.09 399.486 440.13 399.453 440.176 399.428C440.222 399.403 440.272 399.387 440.324 399.382C440.376 399.377 440.428 399.382 440.478 399.396C440.528 399.411 440.574 399.436 440.614 399.469C440.684 399.527 448.096 405.605 454.43 407.183C454.48 407.196 454.528 407.22 454.569 407.251C454.61 407.283 454.645 407.323 454.671 407.368C454.697 407.414 454.713 407.464 454.72 407.515C454.726 407.567 454.722 407.62 454.708 407.67C454.686 407.763 454.63 407.845 454.55 407.899C454.471 407.952 454.374 407.974 454.279 407.96Z" fill="white"/>
<path d="M399.701 320.566C399.638 320.566 399.576 320.551 399.52 320.523C399.463 320.495 399.414 320.454 399.376 320.404C399.346 320.36 399.324 320.312 399.313 320.26C399.302 320.208 399.301 320.155 399.311 320.103C399.32 320.051 399.341 320.002 399.37 319.958C399.399 319.914 399.437 319.876 399.481 319.847C401.047 318.756 403.529 316.657 403.529 315.624C403.529 314.94 402.682 314.128 401.778 313.304C400.776 312.468 399.949 311.443 399.342 310.288C398.75 308.908 396.627 303.491 397.022 302.168C397.037 302.119 397.063 302.073 397.097 302.033C397.13 301.993 397.171 301.961 397.218 301.937C397.264 301.913 397.315 301.899 397.367 301.895C397.419 301.891 397.471 301.897 397.52 301.913C397.622 301.948 397.705 302.02 397.753 302.116C397.801 302.212 397.809 302.322 397.776 302.424C397.532 303.131 398.796 307.064 400.038 309.94C400.605 310.989 401.369 311.918 402.288 312.678C403.367 313.71 404.295 314.592 404.295 315.613C404.295 317.399 400.351 320.172 399.898 320.485C399.841 320.528 399.773 320.556 399.701 320.566Z" fill="white"/>
<path d="M361.05 322.839C360.966 322.843 360.883 322.819 360.814 322.772C360.744 322.726 360.691 322.658 360.663 322.579C360.635 322.5 360.632 322.414 360.656 322.334C360.679 322.253 360.728 322.183 360.795 322.132L364.043 319.533C367.163 317.051 369.089 310.706 369.112 310.636C369.144 310.535 369.214 310.451 369.307 310.402C369.4 310.352 369.509 310.34 369.611 310.369C369.711 310.401 369.796 310.471 369.845 310.565C369.895 310.658 369.907 310.767 369.878 310.868C369.796 311.135 367.848 317.515 364.542 320.148L361.294 322.746C361.226 322.805 361.14 322.838 361.05 322.839Z" fill="white"/>
<path d="M438.167 469.231C438.109 469.229 438.052 469.215 438 469.189C437.948 469.163 437.902 469.126 437.865 469.081C433.712 463.99 429.962 458.583 426.648 452.91C422.159 444.883 409.248 422.924 409.109 422.75C407.913 420.108 407.026 417.336 406.464 414.491C406.383 414.05 406.325 413.644 406.267 413.331C405.838 410.408 405.652 409.201 401.766 406.696C397.88 404.19 397.636 399.829 397.312 395.154C397.242 394.052 397.161 392.915 397.033 391.79C396.511 387.15 384.192 366.27 375.202 351.097C373.16 347.617 371.304 344.508 369.796 341.921C361.746 328.071 356.178 309.859 356.12 309.673C356.091 309.572 356.102 309.463 356.152 309.37C356.202 309.277 356.286 309.207 356.387 309.175C356.436 309.159 356.488 309.153 356.54 309.158C356.592 309.163 356.642 309.178 356.688 309.203C356.733 309.228 356.773 309.262 356.805 309.303C356.837 309.344 356.861 309.391 356.874 309.441C356.932 309.627 362.477 327.758 370.481 341.515C371.989 344.102 373.845 347.246 375.886 350.691C384.923 365.945 397.288 386.848 397.822 391.697C397.95 392.857 398.031 394.017 398.112 395.107C398.425 399.747 398.692 403.784 402.195 406.035C406.383 408.726 406.592 410.129 407.056 413.203C407.056 413.586 407.172 413.981 407.241 414.421C407.792 417.182 408.656 419.872 409.816 422.437C409.921 422.634 422.843 444.593 427.344 452.597C430.637 458.224 434.36 463.587 438.48 468.64C438.513 468.68 438.538 468.726 438.552 468.776C438.567 468.826 438.572 468.878 438.567 468.93C438.562 468.982 438.546 469.032 438.521 469.078C438.496 469.124 438.463 469.164 438.422 469.197C438.343 469.236 438.253 469.248 438.167 469.231Z" fill="white"/>
<path d="M347.64 295.719C347.64 295.719 348.383 303.932 351.631 306.53C354.879 309.128 364.623 311.402 377.94 308.85C391.256 306.298 405.872 294.93 407.172 290.986C408.471 287.042 401.859 276.834 401.859 276.834C401.859 276.834 394.18 287.738 372.743 291.311C351.306 294.884 347.64 295.719 347.64 295.719Z" fill="white"/>
<path d="M366.653 310.532C358.8 310.532 353.417 308.711 351.26 306.982C347.861 304.256 347.095 296.125 347.06 295.777C347.048 295.638 347.086 295.5 347.167 295.388C347.248 295.275 347.366 295.195 347.501 295.162C347.652 295.162 351.434 294.222 372.65 290.684C393.53 287.204 401.302 276.556 401.383 276.451C401.438 276.376 401.509 276.315 401.592 276.273C401.675 276.23 401.766 276.208 401.859 276.208C401.954 276.21 402.047 276.235 402.13 276.282C402.213 276.328 402.283 276.394 402.334 276.474C403.03 277.542 409.062 287.077 407.717 291.125C406.29 295.394 391.338 306.774 378.044 309.372C374.293 310.123 370.478 310.512 366.653 310.532ZM348.278 296.183C348.499 297.969 349.438 304.024 351.99 306.078C354.89 308.397 364.182 310.903 377.824 308.235C391.233 305.614 405.466 294.234 406.626 290.754C407.543 287.993 403.796 281.022 401.801 277.797C399.736 280.268 391.454 288.736 372.801 291.833C355.61 294.71 349.833 295.8 348.278 296.183Z" fill="#2E353A"/>
<path d="M433.26 216.108C427.959 212.628 386.686 180.472 382.8 179.057C378.914 177.642 371.2 179.057 371.2 179.057C371.2 179.057 347.281 181.98 342.27 183.999C341.794 184.184 331.018 190.379 330.67 190.704C326.784 193.882 309.79 201.7 305.219 211.584C300.034 222.766 345.599 290.092 347.722 295.73C349.844 301.368 360.969 302.76 371.2 301.344C381.431 299.929 390.41 297.864 397.822 289.385C399.166 287.696 400.292 285.845 401.174 283.875C402.234 281.674 402.504 279.175 401.94 276.799C399.295 265.779 392.544 234.006 388.09 212.999C395.514 217.79 410.953 227.522 419.932 230.956C431.926 235.596 441.102 232.371 441.102 228.485C441.102 224.599 438.55 219.634 433.26 216.108Z" fill="white"/>
<path d="M418.934 222.964C411.862 222.266 405.012 220.105 398.82 216.618C398.82 216.618 407.995 212.384 408.343 210.262C408.691 208.139 395.641 209.914 397.404 209.206C399.168 208.498 401.638 206.735 397.404 206.735C394.029 206.513 390.704 205.802 387.533 204.624L388.008 212.964C392.045 215.574 398.448 219.623 404.875 223.335C410.919 226.513 417.143 229.336 423.516 231.791C423.516 231.791 431.276 224.379 418.934 222.964Z" fill="#DC4361"/>
<g style="mix-blend-mode:multiply">
<path d="M371.119 301.333L372.43 301.148C375.26 299.779 380.051 298.92 384.714 297.76C391.767 295.997 384.006 295.997 372.36 290C360.714 284.003 356.12 275.187 345.541 262.485C334.962 249.783 330.728 243.426 332.85 242.022C334.973 240.619 328.616 240.607 326.146 239.192C323.675 237.777 329.626 237.788 334.614 232.847C339.602 227.905 325.078 233.902 323.675 233.554C322.271 233.206 325.078 228.613 325.078 228.613L314.847 239.192L339.544 281.532L340.959 282.588L342.583 284.908L347.223 294.884C347.408 295.232 347.536 295.522 347.617 295.719C349.752 301.368 360.888 302.76 371.119 301.333Z" fill="#DC4361"/>
</g>
<path d="M324.348 202.687C332.154 201.527 353.916 213.939 353.916 213.939C341.956 205.819 331.493 198.209 324.336 194.775L311.147 204.055L310.242 204.902C311.773 204.601 317.643 203.638 324.348 202.687Z" fill="#DC4361"/>
<path opacity="0.5" d="M418.934 222.964C411.862 222.266 405.012 220.105 398.82 216.618C398.82 216.618 407.995 212.384 408.343 210.262C408.691 208.139 395.641 209.914 397.404 209.206C399.168 208.498 401.638 206.735 397.404 206.735C394.029 206.513 390.704 205.802 387.533 204.624L388.008 212.964C392.045 215.574 398.448 219.623 404.875 223.335C410.919 226.513 417.143 229.336 423.516 231.791C423.516 231.791 431.276 224.379 418.934 222.964Z" fill="white"/>
<path opacity="0.5" d="M371.119 301.333L372.43 301.148C375.26 299.779 380.051 298.92 384.714 297.76C391.767 295.997 384.006 295.997 372.36 290C360.714 284.003 356.12 275.187 345.541 262.485C334.962 249.783 330.728 243.426 332.85 242.022C334.973 240.619 328.616 240.607 326.146 239.192C323.675 237.777 329.626 237.788 334.614 232.847C339.602 227.905 325.078 233.902 323.675 233.554C322.271 233.206 325.078 228.613 325.078 228.613L314.847 239.192L339.544 281.532L340.959 282.588L342.583 284.908L347.223 294.884C347.408 295.232 347.536 295.522 347.617 295.719C349.752 301.368 360.888 302.76 371.119 301.333Z" fill="white"/>
<path opacity="0.5" d="M324.348 202.687C332.154 201.527 353.916 213.939 353.916 213.939C341.956 205.819 331.493 198.209 324.336 194.775L311.147 204.055L310.242 204.902C311.773 204.601 317.643 203.638 324.348 202.687Z" fill="white"/>
<path d="M363.695 302.435C355.876 302.435 348.835 300.567 347.095 295.927C346.585 294.559 343.151 288.967 338.801 281.938C320.322 251.963 300.916 219.298 304.616 211.329C308.096 203.812 318.385 197.606 325.194 193.499C326.929 192.514 328.606 191.429 330.217 190.251C330.635 189.915 341.434 183.697 342.014 183.465C347.049 181.435 370.11 178.605 371.096 178.489C371.386 178.431 379.018 177.062 382.997 178.489C385.572 179.429 403.216 192.78 417.391 203.51C425.07 209.31 431.694 214.345 433.573 215.597C439.489 219.541 441.6 224.808 441.6 228.427C441.558 229.099 441.349 229.749 440.993 230.32C440.636 230.891 440.144 231.365 439.559 231.698C436.137 234.018 428.655 234.888 419.642 231.443C413.343 229.03 402.717 223.079 388.867 214.182C393.507 236.28 399.875 266.046 402.416 276.625C403.013 279.133 402.731 281.771 401.615 284.095C400.709 286.12 399.539 288.015 398.135 289.733C390.386 298.584 380.956 300.533 371.165 301.878C368.691 302.235 366.195 302.421 363.695 302.435ZM378.079 179.011C375.797 179.045 373.521 179.251 371.27 179.626C370.991 179.626 347.339 182.561 342.444 184.533C341.806 184.823 331.47 190.773 330.948 191.156C329.297 192.37 327.573 193.482 325.786 194.485C319.104 198.522 309.012 204.624 305.672 211.885C301.913 220.005 326.552 259.921 339.787 281.393C344.508 289.049 347.629 294.153 348.186 295.579C350.239 301.055 361.468 302.133 371.038 300.811C380.608 299.489 389.818 297.598 397.3 289.049C398.615 287.401 399.714 285.592 400.571 283.666C401.568 281.587 401.822 279.229 401.29 276.985C398.692 266.173 392.15 235.375 387.44 213.185C387.417 213.071 387.428 212.954 387.471 212.847C387.515 212.739 387.588 212.647 387.684 212.581C387.778 212.519 387.889 212.486 388.003 212.486C388.116 212.486 388.227 212.519 388.322 212.581C402.682 221.861 413.656 228.044 420.059 230.48C428.62 233.763 435.835 232.986 438.898 230.875C439.319 230.637 439.679 230.303 439.947 229.899C440.215 229.496 440.384 229.036 440.44 228.555C440.44 225.237 438.468 220.377 432.935 216.688C431.021 215.412 424.386 210.389 416.695 204.566C403.32 194.451 385.016 180.589 382.603 179.707C381.143 179.23 379.615 178.995 378.079 179.011Z" fill="#2E353A"/>
<path d="M310.81 204.357C310.81 204.357 306.576 208.997 304.929 211.143C296.09 222.499 267.96 258.889 267.647 261.823C267.334 264.758 268.668 266.73 275.546 269.375C282.425 272.02 328.442 225.91 328.442 225.91" fill="white"/>
<g style="mix-blend-mode:multiply" opacity="0.8">
<path d="M310.88 204.496L310.288 204.879C309.43 205.83 307.574 207.906 306.136 209.612L284.768 237.637C284.768 237.637 284.107 238.38 283.063 239.609C275.048 250.293 268.064 259.932 267.635 261.649C267.635 261.707 267.635 261.765 267.635 261.812C267.357 264.584 268.702 266.695 275.546 269.328C276.764 269.792 279.177 268.748 282.344 266.718C280.735 266.395 279.198 265.782 277.808 264.909C273.922 262.438 277.101 259.967 277.101 259.967C277.101 259.967 282.147 261.986 287.123 263.343C288.156 262.566 289.234 261.73 290.336 260.849C289.276 260.155 288.272 259.379 287.332 258.529C283.098 254.654 279.572 250.768 279.572 250.768L311.912 205.633L310.88 204.496Z" fill="#DC4361"/>
</g>
<path opacity="0.5" d="M310.88 204.496L310.288 204.879C309.43 205.83 307.574 207.906 306.136 209.612L284.768 237.637C284.768 237.637 284.107 238.38 283.063 239.609C275.048 250.293 268.064 259.932 267.635 261.649C267.635 261.707 267.635 261.765 267.635 261.812C267.357 264.584 268.702 266.695 275.546 269.328C276.764 269.792 279.177 268.748 282.344 266.718C280.735 266.395 279.198 265.782 277.808 264.909C273.922 262.438 277.101 259.967 277.101 259.967C277.101 259.967 282.147 261.986 287.123 263.343C288.156 262.566 289.234 261.73 290.336 260.849C289.276 260.155 288.272 259.379 287.332 258.529C283.098 254.654 279.572 250.768 279.572 250.768L311.912 205.633L310.88 204.496Z" fill="white"/>
<path d="M276.08 270.048C275.819 270.051 275.56 270.008 275.314 269.92C268.911 267.449 266.661 265.28 267.044 261.8C267.357 258.912 290.615 228.624 304.442 210.83C306.089 208.719 310.184 204.206 310.358 204.021C310.407 203.959 310.469 203.908 310.539 203.871C310.609 203.834 310.686 203.812 310.764 203.806C310.843 203.799 310.922 203.809 310.997 203.835C311.072 203.86 311.141 203.901 311.2 203.954C311.258 204.007 311.305 204.071 311.338 204.143C311.371 204.215 311.389 204.293 311.39 204.372C311.392 204.451 311.377 204.53 311.347 204.603C311.317 204.676 311.273 204.742 311.216 204.798C311.216 204.798 306.971 209.438 305.358 211.549C283.017 240.294 268.424 260.072 268.238 261.928C267.972 264.399 269.12 266.324 275.778 268.888C280.569 270.732 309.662 243.971 328.048 225.539C328.157 225.429 328.305 225.368 328.46 225.368C328.614 225.368 328.762 225.429 328.872 225.539C328.981 225.648 329.042 225.796 329.042 225.95C329.042 226.105 328.981 226.253 328.872 226.362C324.266 230.909 284.966 270.048 276.08 270.048Z" fill="#2E353A"/>
<path d="M403.924 202.246L388.008 212.964C390.328 212.639 401.325 208.742 401.325 208.742" fill="white"/>
<path d="M388.008 213.544C387.892 213.546 387.778 213.511 387.682 213.445C387.586 213.378 387.514 213.283 387.475 213.173C387.426 213.052 387.42 212.919 387.458 212.794C387.496 212.669 387.576 212.562 387.684 212.489L403.61 201.77C403.672 201.727 403.743 201.696 403.817 201.68C403.891 201.664 403.968 201.663 404.042 201.677C404.117 201.691 404.188 201.72 404.251 201.762C404.315 201.804 404.369 201.858 404.411 201.921C404.495 202.051 404.526 202.208 404.495 202.36C404.465 202.512 404.376 202.646 404.248 202.733L391.198 211.526C395.2 210.296 401.058 208.232 401.14 208.197C401.293 208.146 401.461 208.158 401.606 208.231C401.75 208.304 401.86 208.432 401.911 208.585C401.962 208.739 401.949 208.907 401.876 209.051C401.804 209.196 401.676 209.306 401.522 209.357C401.07 209.508 390.398 213.278 388.09 213.602L388.008 213.544Z" fill="#2E353A"/>
<path d="M403.274 208.997C403.139 208.994 403.009 208.946 402.906 208.859C402.803 208.773 402.732 208.653 402.706 208.521C402.678 208.371 402.712 208.215 402.799 208.089C402.886 207.963 403.019 207.877 403.17 207.848L406.742 207.199C406.894 207.171 407.051 207.205 407.179 207.291C407.307 207.378 407.396 207.511 407.427 207.663C407.442 207.739 407.441 207.818 407.425 207.894C407.409 207.97 407.378 208.042 407.334 208.106C407.29 208.17 407.233 208.224 407.167 208.265C407.101 208.307 407.028 208.335 406.951 208.347L403.378 208.997H403.274Z" fill="#2E353A"/>
<path d="M285.36 250.56C282.904 250.487 280.461 250.95 278.203 251.917L285.36 250.56Z" fill="white"/>
<path d="M278.203 252.532C278.049 252.561 277.89 252.528 277.76 252.44C277.631 252.352 277.542 252.216 277.513 252.062C277.483 251.908 277.516 251.749 277.605 251.62C277.693 251.49 277.829 251.401 277.982 251.372C280.324 250.366 282.859 249.887 285.406 249.968C285.483 249.974 285.557 249.995 285.625 250.03C285.693 250.065 285.754 250.112 285.803 250.171C285.853 250.229 285.891 250.296 285.914 250.369C285.938 250.442 285.946 250.519 285.94 250.595C285.925 250.748 285.852 250.889 285.735 250.988C285.618 251.088 285.467 251.138 285.314 251.128C282.953 251.06 280.605 251.507 278.435 252.439C278.365 252.487 278.286 252.519 278.203 252.532Z" fill="#2E353A"/>
<path d="M320.044 234.656C320.044 234.656 328.988 231.919 331.354 230.098L320.044 234.656Z" fill="white"/>
<path d="M320.044 235.236C319.89 235.258 319.734 235.217 319.61 235.124C319.486 235.03 319.404 234.891 319.383 234.737C319.361 234.583 319.402 234.427 319.495 234.303C319.589 234.179 319.728 234.098 319.882 234.076C319.963 234.076 328.744 231.362 331.006 229.622C331.128 229.528 331.281 229.487 331.434 229.506C331.586 229.526 331.724 229.605 331.818 229.726C331.909 229.849 331.948 230.002 331.929 230.153C331.909 230.304 331.832 230.442 331.714 230.538C329.278 232.406 320.589 235.074 320.218 235.178C320.165 235.209 320.105 235.229 320.044 235.236Z" fill="#2E353A"/>
<path d="M333.546 229.193C333.546 229.193 335.008 227.917 335.553 227.917L333.546 229.193Z" fill="white"/>
<path d="M333.546 229.772C333.463 229.772 333.381 229.754 333.305 229.72C333.23 229.686 333.161 229.637 333.106 229.575C332.999 229.465 332.939 229.317 332.939 229.163C332.939 229.01 332.999 228.862 333.106 228.752C333.761 228.075 334.587 227.586 335.495 227.336C335.649 227.336 335.797 227.398 335.905 227.506C336.014 227.615 336.075 227.763 336.075 227.916C336.072 228.069 336.01 228.215 335.902 228.323C335.794 228.431 335.648 228.493 335.495 228.496C334.898 228.798 334.35 229.189 333.871 229.656C333.778 229.728 333.664 229.769 333.546 229.772Z" fill="#2E353A"/>
<path d="M388.008 213.544C387.865 213.542 387.727 213.488 387.62 213.392C387.513 213.296 387.445 213.165 387.428 213.022L385.978 198.116C385.971 198.04 385.978 197.963 386 197.89C386.022 197.816 386.059 197.748 386.107 197.689C386.156 197.63 386.215 197.581 386.283 197.544C386.35 197.508 386.424 197.486 386.5 197.478C386.577 197.47 386.653 197.478 386.727 197.5C386.8 197.522 386.868 197.558 386.927 197.607C386.987 197.655 387.036 197.715 387.072 197.782C387.108 197.85 387.131 197.924 387.138 198L388.6 212.918C388.608 212.993 388.601 213.07 388.579 213.142C388.556 213.215 388.52 213.283 388.471 213.341C388.423 213.4 388.363 213.448 388.295 213.482C388.228 213.517 388.154 213.538 388.078 213.544H388.008Z" fill="#2E353A"/>
<path d="M267.612 261.974C267.612 261.974 265.559 269.827 278.725 273.087C284.977 274.63 326.354 284.687 326.354 284.687C326.354 284.687 330.055 276.752 327.944 276.752C325.832 276.752 287.68 251.383 287.68 251.383" fill="white"/>
<path d="M273.76 271.358L321.738 283.608L323.014 280.569C323.014 280.569 304.941 276.95 293.654 271.289C282.367 265.628 281.648 267.403 277.774 264.944C273.899 262.484 277.066 260.002 277.066 260.002C277.066 260.002 287.657 264.236 293.306 264.584C298.955 264.932 291.543 262.473 287.309 258.587C285.557 256.986 283.933 255.374 282.669 254.051L267.589 261.962C267.589 261.962 266.127 267.658 273.76 271.358Z" fill="#DC4361"/>
<path opacity="0.5" d="M273.76 271.358L321.738 283.608L323.014 280.569C323.014 280.569 304.941 276.95 293.654 271.289C282.367 265.628 281.648 267.403 277.774 264.944C273.899 262.484 277.066 260.002 277.066 260.002C277.066 260.002 287.657 264.236 293.306 264.584C298.955 264.932 291.543 262.473 287.309 258.587C285.557 256.986 283.933 255.374 282.669 254.051L267.589 261.962C267.589 261.962 266.127 267.658 273.76 271.358Z" fill="white"/>
<path d="M326.354 285.36H326.215C326.215 285.36 284.838 275.256 278.586 273.76C273.366 272.472 269.828 270.28 268.076 267.368C267.056 265.755 266.691 263.813 267.055 261.94C267.096 261.792 267.193 261.666 267.325 261.588C267.457 261.51 267.614 261.486 267.763 261.522C267.91 261.563 268.035 261.66 268.111 261.792C268.187 261.925 268.208 262.082 268.169 262.23C267.906 263.815 268.237 265.442 269.097 266.8C270.686 269.468 273.98 271.44 278.864 272.6C284.664 274.05 321.459 283.04 326.03 284.13C327.456 280.975 328.35 277.913 327.944 277.437C325.74 277.437 293.782 256.209 287.402 251.917C287.274 251.83 287.185 251.696 287.155 251.544C287.124 251.393 287.155 251.235 287.239 251.105C287.281 251.042 287.335 250.988 287.399 250.946C287.462 250.904 287.533 250.875 287.608 250.861C287.682 250.847 287.759 250.848 287.833 250.864C287.907 250.88 287.977 250.911 288.04 250.954C303.062 260.965 326.099 275.964 327.967 276.254C328.156 276.257 328.341 276.306 328.507 276.397C328.673 276.488 328.814 276.618 328.918 276.776C329.881 278.296 327.596 283.469 326.865 285.024C326.819 285.122 326.748 285.205 326.658 285.264C326.567 285.324 326.462 285.357 326.354 285.36Z" fill="#2E353A"/>
<path d="M327.944 276.788C327.944 276.788 341.527 283.144 342.583 284.908C343.638 286.671 346.063 295.835 346.063 298.665C346.063 301.496 345.715 301.484 343.952 301.484C342.188 301.484 337.595 294.779 336.539 293.364C335.484 291.949 333.059 291.949 329.834 289.884C328.936 289.314 328.164 288.566 327.565 287.686C326.967 286.806 326.555 285.813 326.354 284.768L327.944 276.788Z" fill="white"/>
<path d="M343.998 302.064C342.478 302.064 339.973 299.036 336.678 294.489C336.446 294.164 336.261 293.898 336.122 293.724C335.459 293.065 334.628 292.599 333.72 292.378C332.257 291.858 330.859 291.169 329.556 290.325C328.58 289.711 327.741 288.903 327.09 287.951C326.44 286.999 325.992 285.924 325.774 284.792C325.769 284.734 325.769 284.675 325.774 284.618L327.364 276.672C327.381 276.586 327.418 276.506 327.47 276.435C327.522 276.365 327.588 276.307 327.665 276.266C327.744 276.226 327.832 276.205 327.92 276.205C328.009 276.205 328.096 276.226 328.176 276.266C330.496 277.333 341.98 282.785 343.07 284.606C344.16 286.427 346.678 295.754 346.678 298.665C346.678 301.577 346.144 302.064 343.998 302.064ZM326.946 284.745C327.153 285.697 327.548 286.597 328.107 287.394C328.667 288.191 329.38 288.868 330.206 289.385C331.437 290.178 332.757 290.824 334.138 291.311C335.255 291.601 336.265 292.205 337.05 293.051C337.189 293.225 337.386 293.492 337.618 293.828C341.864 299.698 343.418 300.927 343.998 300.927C345.529 300.927 345.529 300.927 345.529 298.688C345.529 295.951 343.116 286.938 342.049 285.221C341.376 284.061 333.546 280.117 328.326 277.646L326.946 284.745Z" fill="#2E353A"/>
<path d="M322.144 283.944C322.086 283.955 322.027 283.955 321.97 283.944C321.896 283.922 321.828 283.885 321.77 283.836C321.711 283.787 321.663 283.726 321.628 283.658C321.594 283.59 321.573 283.515 321.568 283.439C321.563 283.363 321.573 283.286 321.598 283.214L323.71 276.66C323.731 276.585 323.767 276.515 323.816 276.454C323.865 276.393 323.926 276.343 323.995 276.307C324.064 276.27 324.139 276.248 324.217 276.241C324.295 276.234 324.373 276.243 324.447 276.267C324.521 276.292 324.59 276.33 324.649 276.382C324.707 276.433 324.755 276.496 324.789 276.566C324.823 276.636 324.843 276.712 324.847 276.79C324.851 276.868 324.839 276.946 324.812 277.019L322.7 283.573C322.656 283.684 322.579 283.779 322.48 283.845C322.38 283.911 322.263 283.946 322.144 283.944Z" fill="#2E353A"/>
<path d="M425.14 227.36C425.14 227.36 421.66 239.354 420.198 246.407C418.737 253.46 408.912 281.694 408.912 281.694L417.38 286.984C417.38 286.984 436.079 248.24 439.64 239.749C443.201 231.257 442.111 224.924 438.584 221.397" fill="white"/>
<path d="M417.38 287.599C417.272 287.596 417.168 287.564 417.078 287.506L408.61 282.216C408.498 282.147 408.412 282.041 408.368 281.917C408.324 281.792 408.323 281.657 408.366 281.532C408.459 281.253 418.25 253.263 419.63 246.337C421.01 239.412 424.56 227.36 424.56 227.232C424.603 227.078 424.706 226.948 424.845 226.87C424.984 226.791 425.149 226.772 425.302 226.815C425.456 226.858 425.587 226.96 425.665 227.099C425.743 227.239 425.763 227.403 425.72 227.557C425.72 227.673 422.182 239.609 420.79 246.558C419.468 253.181 410.942 277.75 409.631 281.485L417.159 286.183C419.479 281.3 435.847 247.312 439.095 239.517C442.227 231.988 441.89 225.597 438.167 221.803C438.059 221.696 437.999 221.55 437.999 221.397C437.999 221.245 438.059 221.099 438.167 220.991C438.275 220.884 438.421 220.823 438.573 220.823C438.725 220.823 438.871 220.884 438.979 220.991C443.062 225.063 443.491 231.988 440.139 239.969C436.659 248.356 418.099 286.879 417.902 287.274C417.867 287.347 417.817 287.412 417.755 287.464C417.693 287.516 417.62 287.554 417.542 287.575L417.38 287.599Z" fill="#2E353A"/>
<path d="M410.512 277.657C411.15 277.657 419.189 282.088 419.189 282.088L410.512 277.657Z" fill="#2E353A"/>
<path d="M354.879 213.939C352.93 213.614 342.525 206.793 335.379 201.271C328.234 195.75 324.336 194.775 324.336 194.775L319.464 198.023C318.727 195.649 318.96 193.08 320.114 190.878C322.062 187.305 328.883 183.732 335.704 181.134C342.525 178.535 350.32 176.32 355.204 176.32C360.087 176.32 361.375 178.269 361.375 180.867C361.375 183.465 361.375 191.585 359.751 197.757C358.127 203.928 354.879 213.939 354.879 213.939Z" fill="white"/>
<g style="mix-blend-mode:multiply">
<path d="M351.816 180.066C351.816 180.066 348.812 189.068 345.808 191.771C343.488 193.716 340.977 195.422 338.314 196.863C338.314 196.863 336.516 190.564 332.015 190.564C327.514 190.564 320.612 193.569 320.612 193.569C320.612 193.569 320.612 191.168 326.308 188.163L332.015 185.17L345.216 180.066H351.816Z" fill="#DC4361"/>
</g>
<path opacity="0.5" d="M351.816 180.066C351.816 180.066 348.812 189.068 345.808 191.771C343.488 193.716 340.977 195.422 338.314 196.863C338.314 196.863 336.516 190.564 332.015 190.564C327.514 190.564 320.612 193.569 320.612 193.569C320.612 193.569 320.612 191.168 326.308 188.163L332.015 185.17L345.216 180.066H351.816Z" fill="white"/>
<path d="M354.879 214.519H354.774C352.617 214.159 341.933 207.071 335.054 201.759C329.08 197.119 325.392 195.738 324.452 195.437L319.812 198.534C319.736 198.58 319.652 198.609 319.564 198.621C319.476 198.633 319.387 198.627 319.302 198.603C319.218 198.575 319.143 198.528 319.08 198.465C319.018 198.403 318.971 198.327 318.942 198.244C318.544 196.992 318.4 195.673 318.518 194.364C318.635 193.056 319.012 191.784 319.626 190.623C321.946 186.284 330.6 182.503 335.53 180.612C339.404 179.139 349.079 175.705 355.25 175.705C359.786 175.705 362.001 177.375 362.001 180.832C362.001 183.5 362.001 191.632 360.354 197.873C358.707 204.113 355.505 214.043 355.47 214.113C355.434 214.238 355.355 214.347 355.247 214.421C355.139 214.495 355.009 214.529 354.879 214.519ZM324.336 194.195H324.475C324.638 194.195 328.582 195.263 335.739 200.796C342.455 205.981 351.816 212.152 354.496 213.208C355.192 211.027 357.802 202.768 359.136 197.525C360.748 191.435 360.748 183.419 360.748 180.786C360.748 178.825 360.087 176.819 355.157 176.819C350.958 176.819 343.928 178.582 335.866 181.656C327.804 184.73 322.178 188.198 320.578 191.133C319.618 192.956 319.33 195.059 319.766 197.072L323.965 194.277C324.076 194.208 324.207 194.179 324.336 194.195Z" fill="#2E353A"/>
<path d="M325.96 172.712C329.765 176.909 332.437 182.008 333.72 187.525C335.832 196.701 349.102 207.489 352.28 207.489C355.459 207.489 355.238 191.759 354.183 187.177C353.127 182.595 348.893 170.241 348.893 170.241C348.893 170.241 332.004 162.121 325.96 172.712Z" fill="white"/>
<path d="M352.327 208.069C348.916 208.069 335.344 196.98 333.198 187.653C331.926 182.245 329.309 177.245 325.589 173.118C325.499 173.028 325.442 172.912 325.425 172.786C325.408 172.66 325.433 172.533 325.496 172.422C331.69 161.495 349.009 169.627 349.183 169.72C349.253 169.753 349.316 169.799 349.368 169.857C349.42 169.915 349.459 169.983 349.485 170.056C349.659 170.555 353.742 182.48 354.797 187.05C355.714 191.064 356.143 204.253 353.707 207.327C353.55 207.549 353.344 207.732 353.105 207.861C352.865 207.99 352.599 208.061 352.327 208.069ZM326.726 172.631C330.447 176.845 333.058 181.92 334.323 187.398C336.435 196.504 349.624 206.909 352.327 206.909C352.327 206.909 352.547 206.909 352.791 206.596C354.763 204.125 354.635 191.516 353.661 187.305C352.686 183.094 349.021 172.399 348.464 170.659C346.527 169.801 332.201 163.804 326.726 172.631Z" fill="#2E353A"/>
<g style="mix-blend-mode:multiply">
<path d="M351.816 180.067C351.816 180.067 348.812 189.069 345.808 191.771C343.488 193.717 340.977 195.423 338.314 196.864C338.314 196.864 336.516 190.565 332.015 190.565C327.514 190.565 320.612 193.569 320.612 193.569C320.612 193.569 320.612 191.168 326.308 188.164L332.015 185.171L345.216 180.067H351.816Z" fill="#DC4361"/>
</g>
<path opacity="0.5" d="M351.816 180.067C351.816 180.067 348.812 189.069 345.808 191.771C343.488 193.717 340.977 195.423 338.314 196.864C338.314 196.864 336.516 190.565 332.015 190.565C327.514 190.565 320.612 193.569 320.612 193.569C320.612 193.569 320.612 191.168 326.308 188.164L332.015 185.171L345.216 180.067H351.816Z" fill="white"/>
<path d="M325.96 172.712C329.765 176.909 332.437 182.008 333.72 187.525C335.832 196.701 349.102 207.489 352.28 207.489C355.459 207.489 355.238 191.759 354.183 187.177C353.127 182.595 348.893 170.241 348.893 170.241C348.893 170.241 332.004 162.121 325.96 172.712Z" fill="white"/>
<path d="M352.327 208.069C348.916 208.069 335.344 196.98 333.198 187.653C331.926 182.245 329.309 177.245 325.589 173.118C325.499 173.028 325.442 172.912 325.425 172.786C325.408 172.66 325.433 172.533 325.496 172.422C331.69 161.495 349.009 169.627 349.183 169.72C349.253 169.753 349.316 169.799 349.368 169.857C349.42 169.915 349.46 169.983 349.485 170.056C349.659 170.555 353.742 182.48 354.798 187.05C355.714 191.064 356.143 204.253 353.707 207.327C353.551 207.549 353.344 207.732 353.105 207.861C352.865 207.99 352.599 208.061 352.327 208.069ZM326.726 172.631C330.447 176.845 333.058 181.92 334.324 187.398C336.435 196.504 349.624 206.909 352.327 206.909C352.327 206.909 352.547 206.909 352.791 206.596C354.763 204.125 354.635 191.516 353.661 187.305C352.686 183.094 349.021 172.399 348.464 170.659C346.527 169.801 332.201 163.804 326.726 172.631Z" fill="#2E353A"/>
<path d="M314.812 155.706C317.301 162.475 320.379 169.011 324.011 175.241C329.37 184.045 339.718 189.033 345.46 186.736C351.202 184.44 355.111 177.027 353.58 165.543C353.243 163.014 351.039 161.982 350.332 159.743C347.791 151.623 345.204 143.793 344.311 140.812C343.151 136.972 333.964 133.144 324.394 135.824C314.824 138.504 313.281 146.508 314.812 155.706Z" fill="white"/>
<path d="M346.608 148.677C346.608 148.677 343.128 151.264 335.31 149.767C327.491 148.271 322.109 148.607 322.41 150.672C322.712 152.737 323.315 155.463 323.315 155.463C323.315 155.463 313.931 147.343 322.434 145.185C328.558 143.596 332.096 146.009 333.593 146.345C335.089 146.682 346.608 148.677 346.608 148.677Z" fill="#DC4361"/>
<path opacity="0.5" d="M346.608 148.677C346.608 148.677 343.128 151.264 335.31 149.767C327.491 148.271 322.109 148.607 322.41 150.672C322.712 152.737 323.315 155.463 323.315 155.463C323.315 155.463 313.931 147.343 322.434 145.185C328.558 143.596 332.096 146.009 333.593 146.345C335.089 146.682 346.608 148.677 346.608 148.677Z" fill="white"/>
<path d="M342.258 187.92C336.029 187.92 327.92 182.828 323.512 175.578C319.849 169.312 316.744 162.737 314.232 155.927C314.226 155.897 314.226 155.865 314.232 155.834C312.318 144.408 315.59 137.669 324.22 135.256C334.231 132.449 343.638 136.578 344.856 140.627C345.274 142.03 346.016 144.49 347.049 147.587C348.209 151.067 349.52 155.278 350.865 159.593C351.202 160.451 351.698 161.238 352.327 161.913C353.265 162.898 353.894 164.136 354.136 165.474C355.853 178.362 350.888 185.194 345.668 187.282C344.583 187.71 343.425 187.927 342.258 187.92ZM315.381 155.556C317.852 162.269 320.903 168.755 324.498 174.94C329.892 183.79 340.089 188.256 345.251 186.192C350.065 184.266 354.635 177.851 353 165.613C352.787 164.495 352.26 163.461 351.48 162.632C350.747 161.828 350.183 160.885 349.821 159.86C348.476 155.556 347.118 151.334 346.005 147.865C345.019 144.803 344.23 142.332 343.801 140.905C342.826 137.68 334.254 133.609 324.591 136.265C316.61 138.562 313.606 144.849 315.381 155.556Z" fill="#2E353A"/>
<path d="M321.714 168.339C321.714 168.339 315.578 165.659 315.195 168.339C314.812 171.018 317.515 172.979 320.172 174.139C320.834 174.501 321.589 174.658 322.341 174.59C323.093 174.522 323.808 174.232 324.394 173.756" fill="white"/>
<path d="M322.109 175.16C321.365 175.151 320.63 174.989 319.951 174.684C316.158 173.06 314.267 170.798 314.627 168.316C314.657 168.032 314.757 167.76 314.917 167.524C315.076 167.287 315.291 167.093 315.543 166.959C317.388 165.926 321.482 167.666 321.946 167.875C322.077 167.944 322.176 168.06 322.224 168.2C322.272 168.339 322.265 168.492 322.205 168.626C322.144 168.761 322.034 168.867 321.898 168.924C321.762 168.98 321.609 168.983 321.471 168.931C319.94 168.258 317.121 167.411 316.1 167.968C316.007 168.019 315.929 168.092 315.872 168.181C315.815 168.27 315.782 168.373 315.775 168.478C315.404 171.065 318.513 172.805 320.415 173.617C320.973 173.927 321.61 174.067 322.247 174.02C322.884 173.973 323.493 173.74 324 173.35C324.111 173.256 324.254 173.207 324.4 173.214C324.546 173.221 324.684 173.282 324.787 173.386C324.889 173.49 324.949 173.629 324.954 173.775C324.958 173.921 324.907 174.064 324.812 174.174C324.068 174.832 323.102 175.184 322.109 175.16Z" fill="#2E353A"/>
<path d="M346.759 153.189C346.759 153.189 339.926 151.565 342.85 160.671C343.43 162.469 347.408 164.569 347.408 164.569C347.408 164.569 347.084 167.492 345.46 167.817" fill="white"/>
<path d="M345.448 168.397C345.315 168.395 345.186 168.348 345.083 168.264C344.98 168.18 344.908 168.063 344.88 167.933C344.864 167.858 344.864 167.78 344.88 167.705C344.895 167.629 344.925 167.558 344.968 167.494C345.011 167.43 345.067 167.376 345.131 167.334C345.196 167.292 345.268 167.263 345.344 167.249C346.179 167.075 346.608 165.694 346.77 164.929C345.703 164.326 342.85 162.609 342.304 160.892C341.214 157.505 341.307 155.092 342.571 153.723C344.126 152.041 346.77 152.656 346.886 152.679C347.035 152.715 347.164 152.808 347.244 152.939C347.325 153.069 347.35 153.226 347.316 153.375C347.299 153.45 347.268 153.52 347.224 153.583C347.18 153.645 347.124 153.697 347.059 153.738C346.994 153.778 346.921 153.804 346.846 153.816C346.77 153.827 346.693 153.823 346.62 153.804C346.62 153.804 344.508 153.329 343.418 154.512C342.328 155.695 342.467 157.621 343.418 160.532C343.789 161.692 346.237 163.328 347.687 164.094C347.787 164.151 347.869 164.236 347.923 164.339C347.976 164.442 347.999 164.558 347.988 164.674C347.988 165.022 347.559 168.038 345.576 168.432L345.448 168.397Z" fill="#2E353A"/>
<path d="M341.875 174.313C341.875 174.313 337.003 175.287 335.054 173.014L341.875 174.313Z" fill="white"/>
<path d="M339.544 175.16C338.648 175.231 337.747 175.115 336.898 174.819C336.049 174.524 335.272 174.055 334.614 173.443C334.564 173.385 334.526 173.318 334.503 173.245C334.479 173.173 334.47 173.097 334.476 173.021C334.482 172.945 334.503 172.871 334.537 172.803C334.572 172.735 334.62 172.675 334.677 172.625C334.735 172.576 334.802 172.538 334.875 172.514C334.947 172.491 335.024 172.482 335.099 172.488C335.175 172.494 335.249 172.514 335.317 172.549C335.385 172.583 335.446 172.631 335.495 172.689C337.2 174.684 341.724 173.849 341.771 173.849C341.845 173.832 341.922 173.831 341.996 173.844C342.071 173.858 342.142 173.887 342.205 173.93C342.268 173.972 342.322 174.027 342.363 174.091C342.404 174.155 342.431 174.226 342.444 174.301C342.459 174.376 342.459 174.453 342.445 174.528C342.43 174.602 342.401 174.674 342.359 174.737C342.317 174.801 342.263 174.855 342.2 174.898C342.137 174.941 342.066 174.97 341.991 174.986C341.182 175.114 340.363 175.172 339.544 175.16Z" fill="#2E353A"/>
<path d="M334.73 159.047C334.73 159.047 331.157 157.748 329.208 159.372C328.165 160.098 327.358 161.114 326.888 162.295" fill="white"/>
<path d="M326.934 162.864H326.795C326.721 162.845 326.652 162.811 326.591 162.766C326.53 162.72 326.478 162.662 326.44 162.597C326.401 162.531 326.375 162.458 326.365 162.383C326.354 162.307 326.358 162.23 326.378 162.156C326.863 160.863 327.718 159.741 328.837 158.931C331.018 157.122 334.776 158.456 334.927 158.514C334.999 158.538 335.066 158.577 335.123 158.628C335.18 158.679 335.226 158.741 335.259 158.811C335.292 158.88 335.31 158.955 335.312 159.032C335.315 159.108 335.302 159.185 335.275 159.256C335.222 159.401 335.115 159.519 334.976 159.584C334.836 159.649 334.677 159.656 334.532 159.604C334.532 159.604 331.25 158.444 329.579 159.824C328.66 160.491 327.941 161.398 327.503 162.446C327.465 162.567 327.39 162.674 327.288 162.749C327.185 162.824 327.061 162.864 326.934 162.864Z" fill="#2E353A"/>
<path d="M334.637 164.604C335.101 165.683 335.008 166.75 334.428 166.993C333.848 167.237 333.013 166.576 332.549 165.497C332.085 164.418 332.189 163.363 332.769 163.107C333.349 162.852 334.184 163.56 334.637 164.604Z" fill="#2E353A"/>
<path d="M346.318 158.92C346.782 159.987 346.678 161.054 346.109 161.309C345.541 161.565 344.682 160.88 344.23 159.813C343.778 158.746 343.859 157.667 344.439 157.423C345.019 157.18 345.854 157.853 346.318 158.92Z" fill="#2E353A"/>
<path d="M320.009 169.882C320.009 169.882 323.884 167.063 323.176 164.592C322.468 162.121 321.065 162.121 322.48 160.718C323.895 159.314 324.939 158.595 324.591 156.484C324.243 154.373 318.594 150.835 320.357 148.723C322.12 146.612 321.413 144.083 335.878 147.656C350.343 151.229 359.519 145.545 355.285 140.255C351.051 134.966 347.524 134.258 347.524 134.258C347.524 134.258 355.644 130.778 348.94 127.194C342.235 123.609 327.062 123.714 318.594 130.372C310.126 137.031 311.889 142.68 311.889 142.68C311.889 142.68 307.307 143.387 306.948 150.452C306.588 157.516 320.009 169.882 320.009 169.882Z" fill="#2E353A"/>
<path d="M343.093 146.253C340.01 146.123 336.974 145.448 334.126 144.257C331.895 143.306 329.518 142.741 327.097 142.587C321.494 142.587 320.334 145.765 320.288 145.905C320.272 145.954 320.246 146 320.213 146.039C320.179 146.079 320.137 146.111 320.09 146.133C320.044 146.156 319.993 146.169 319.941 146.172C319.889 146.174 319.837 146.166 319.789 146.148C319.739 146.132 319.693 146.107 319.653 146.073C319.614 146.04 319.581 145.998 319.557 145.952C319.533 145.906 319.519 145.855 319.515 145.803C319.511 145.751 319.517 145.699 319.534 145.649C319.592 145.499 320.891 141.787 327.097 141.787C329.611 141.935 332.08 142.52 334.393 143.515C338.001 144.803 341.748 146.137 346.457 145.093C349.009 144.524 350.506 143.608 350.877 142.39C351.364 140.824 349.856 139.188 349.844 139.165C349.771 139.091 349.729 138.991 349.729 138.887C349.729 138.782 349.771 138.682 349.844 138.608C349.922 138.536 350.023 138.497 350.129 138.497C350.234 138.497 350.336 138.536 350.413 138.608C350.482 138.689 352.246 140.603 351.631 142.61C351.155 144.13 349.473 145.22 346.62 145.858C345.461 146.114 344.279 146.247 343.093 146.253Z" fill="white"/>
<path d="M317.214 145.278C317.108 145.269 317.01 145.22 316.941 145.139C316.871 145.059 316.836 144.955 316.842 144.849C316.842 144.768 317.527 137.112 324.313 135.395C328.315 134.386 332.943 135.14 336.667 135.743C338.987 136.126 341.063 136.462 341.933 136.126C342.029 136.106 342.128 136.12 342.214 136.167C342.3 136.214 342.365 136.291 342.399 136.382C342.433 136.474 342.433 136.575 342.398 136.666C342.364 136.758 342.298 136.833 342.212 136.88C341.144 137.274 339.114 136.95 336.539 136.532C332.885 135.929 328.338 135.198 324.51 136.161C318.269 137.75 317.643 144.838 317.631 144.907C317.628 144.959 317.615 145.01 317.592 145.056C317.57 145.103 317.538 145.145 317.499 145.179C317.461 145.214 317.415 145.24 317.366 145.257C317.317 145.274 317.265 145.282 317.214 145.278Z" fill="white"/>
<path d="M312.724 157.249C312.646 157.248 312.569 157.224 312.504 157.18C311.462 156.306 310.655 155.187 310.155 153.923C309.655 152.659 309.477 151.291 309.639 149.941C309.964 144.837 313.884 144.779 313.931 144.779C314.025 144.795 314.111 144.844 314.173 144.918C314.235 144.991 314.268 145.084 314.268 145.179C314.268 145.275 314.235 145.368 314.173 145.441C314.111 145.515 314.025 145.564 313.931 145.58C313.792 145.58 310.706 145.649 310.451 149.988C310.294 151.201 310.442 152.435 310.881 153.578C311.321 154.72 312.038 155.735 312.968 156.53C313.011 156.559 313.047 156.596 313.075 156.64C313.103 156.683 313.122 156.732 313.131 156.783C313.139 156.834 313.138 156.886 313.126 156.936C313.114 156.987 313.092 157.034 313.061 157.075C313.026 157.132 312.976 157.178 312.916 157.208C312.857 157.239 312.791 157.253 312.724 157.249Z" fill="white"/>
<path d="M315.126 153.955C315.05 153.955 314.975 153.933 314.912 153.892C314.848 153.851 314.797 153.792 314.766 153.723C314.48 153.194 314.31 152.609 314.268 152.009C314.226 151.409 314.313 150.807 314.522 150.243C315.034 149.137 315.946 148.267 317.074 147.807C317.122 147.786 317.174 147.776 317.226 147.776C317.278 147.776 317.329 147.787 317.377 147.807C317.425 147.828 317.468 147.858 317.504 147.896C317.539 147.934 317.567 147.978 317.585 148.027C317.623 148.124 317.621 148.232 317.58 148.328C317.539 148.424 317.461 148.499 317.364 148.538C316.441 148.929 315.691 149.642 315.253 150.544C315.089 151.008 315.025 151.5 315.065 151.99C315.105 152.48 315.248 152.956 315.485 153.386C315.529 153.484 315.533 153.594 315.496 153.694C315.459 153.793 315.384 153.875 315.288 153.92C315.237 153.943 315.182 153.955 315.126 153.955Z" fill="white"/>
<path d="M316.019 160.242C315.955 160.241 315.892 160.224 315.836 160.194C315.779 160.164 315.731 160.121 315.694 160.068L314.198 157.98C314.136 157.894 314.111 157.787 314.129 157.683C314.146 157.578 314.204 157.485 314.29 157.423C314.377 157.362 314.484 157.337 314.588 157.355C314.692 157.372 314.786 157.43 314.847 157.516L316.344 159.616C316.403 159.701 316.426 159.805 316.409 159.907C316.391 160.009 316.335 160.101 316.251 160.161C316.185 160.215 316.103 160.243 316.019 160.242Z" fill="white"/>
</svg>
