<svg width="32" height="32" viewBox="0 0 32 32" fill="none" xmlns="http://www.w3.org/2000/svg">
<rect width="32" height="32" rx="4" fill="#473E3B"/>
<path d="M16.9677 6V15.0323H26V6H16.9677ZM24.0645 13.0968H18.9032V7.93548H24.0645V13.0968Z" fill="#FF8F67"/>
<path d="M6 15.0323H15.0323V6H6V15.0323ZM7.93548 7.93548H13.0968V13.0968H7.93548V7.93548Z" fill="#FF8F67"/>
<path d="M6 26H15.0323V16.9677H6V26ZM7.93548 18.9032H13.0968V24.0645H7.93548V18.9032Z" fill="#FF8F67"/>
<path d="M19.2258 16.9677H16.9677V19.2258H19.2258V16.9677Z" fill="#FF8F67"/>
<path d="M23.7419 16.9677H21.4839V19.2258H23.7419V16.9677Z" fill="#FF8F67"/>
<path d="M21.4839 19.2258H19.2258V21.4839H21.4839V19.2258Z" fill="#FF8F67"/>
<path d="M26 19.2258H23.7419V21.4839H26V19.2258Z" fill="#FF8F67"/>
<path d="M19.2258 21.4839H16.9677V23.7419H19.2258V21.4839Z" fill="#FF8F67"/>
<path d="M23.7419 21.4839H21.4839V23.7419H23.7419V21.4839Z" fill="#FF8F67"/>
<path d="M21.4839 23.7419H19.2258V26H21.4839V23.7419Z" fill="#FF8F67"/>
<path d="M26 23.7419H23.7419V26H26V23.7419Z" fill="#FF8F67"/>
</svg>
