<svg width="72" height="64" viewBox="0 0 72 64" fill="none" xmlns="http://www.w3.org/2000/svg">
<rect width="71.8667" height="64" rx="4" fill="#EDEDED"/>
<g clip-path="url(#clip0_341_50427)">
<path d="M35.9839 36C39.5703 36 42.4245 33.09 42.4245 29.5C42.4245 25.91 39.5172 23 35.9839 23C32.3976 23 29.5434 25.91 29.5434 29.5C29.4871 33.0875 32.3982 36 35.9839 36ZM39.1074 38H32.873C27.9691 38 23.9961 41.7312 23.9961 46.3312C23.9961 47.2562 24.7895 48 25.7702 48H46.2101C47.1909 48 47.9842 47.2562 47.9842 46.3312C47.9842 41.7312 44.0112 38 39.1074 38Z" fill="#DC4361"/>
<path opacity="0.4" d="M23.996 26C26.7559 26 28.9936 23.7613 28.9936 21C28.9936 18.2387 26.7572 16 23.996 16C21.2362 16 18.9985 18.2387 18.9985 21C18.9985 23.7613 21.2362 26 23.996 26ZM47.9842 26C50.7441 26 52.9817 23.7613 52.9817 21C52.9817 18.2387 50.7453 16 47.9842 16C45.2243 16 42.9867 18.2387 42.9867 21C42.9867 23.7613 45.2231 26 47.9842 26ZM50.4767 28H46.6136C45.814 28 45.0594 28.1898 44.3735 28.515C44.411 28.8438 44.4734 29.1625 44.4734 29.5C44.4734 31.6069 43.6751 33.5131 42.402 35H54.877C55.4867 35 55.9802 34.475 55.9802 33.8312C55.9802 30.6125 53.519 28 50.4767 28ZM27.588 28.5063C26.9071 28.1313 26.1575 28 25.3641 28H21.5023C18.4638 28 16 30.6125 16 33.8312C16 34.475 16.4927 35 17.1007 35H29.5633C28.2902 33.5131 27.4918 31.6069 27.4918 29.5C27.4881 29.1625 27.5505 28.8375 27.588 28.5063Z" fill="black"/>
</g>
<defs>
<clipPath id="clip0_341_50427">
<rect width="39.9802" height="32" fill="white" transform="translate(16 16)"/>
</clipPath>
</defs>
</svg>
