<svg width="72" height="64" viewBox="0 0 72 64" fill="none" xmlns="http://www.w3.org/2000/svg">
<rect width="71.8667" height="64" rx="4" fill="#DC4361"/>
<g clip-path="url(#clip0_341_50417)">
<path d="M23.9331 46C22.8287 46 21.9331 45.1063 21.9331 44C21.9331 42.8937 22.8287 42 23.9331 42H47.9331C49.0394 42 49.9331 42.8937 49.9331 44C49.9331 45.1063 49.0394 46 47.9331 46H23.9331ZM23.9331 30C22.8287 30 21.9331 29.1063 21.9331 28C21.9331 26.8937 22.8287 26 23.9331 26H47.9331C49.0394 26 49.9331 26.8937 49.9331 28C49.9331 29.1063 49.0394 30 47.9331 30H23.9331Z" fill="white"/>
<path opacity="0.4" d="M23.9331 38C22.8287 38 21.9331 37.1063 21.9331 36C21.9331 34.8937 22.8287 34 23.9331 34H37.9331C39.0394 34 39.9331 34.8937 39.9331 36C39.9331 37.1063 39.0394 38 37.9331 38H23.9331ZM23.9331 22C22.8287 22 21.9331 21.1044 21.9331 20C21.9331 18.8956 22.8287 18 23.9331 18H37.9331C39.0394 18 39.9331 18.8956 39.9331 20C39.9331 21.1044 39.0394 22 37.9331 22H23.9331Z" fill="white"/>
</g>
<defs>
<clipPath id="clip0_341_50417">
<rect width="28" height="32" fill="white" transform="translate(21.9331 16)"/>
</clipPath>
</defs>
</svg>
