<svg width="32" height="32" viewBox="0 0 32 32" fill="none" xmlns="http://www.w3.org/2000/svg">
<rect width="32" height="32" rx="4" fill="#46475B"/>
<path d="M16 26C14.0222 26 12.0888 25.4135 10.4443 24.3147C8.79981 23.2159 7.51809 21.6541 6.76121 19.8268C6.00433 17.9996 5.8063 15.9889 6.19215 14.0491C6.578 12.1093 7.53041 10.3275 8.92894 8.92894C10.3275 7.53041 12.1093 6.578 14.0491 6.19215C15.9889 5.8063 17.9996 6.00433 19.8268 6.76121C21.6541 7.51809 23.2159 8.79981 24.3147 10.4443C25.4135 12.0888 26 14.0222 26 16C26 18.6522 24.9464 21.1957 23.0711 23.0711C21.1957 24.9464 18.6522 26 16 26ZM16 7.66667C14.3518 7.66667 12.7407 8.15541 11.3703 9.07109C9.99984 9.98677 8.93174 11.2883 8.30101 12.811C7.67028 14.3337 7.50525 16.0092 7.82679 17.6258C8.14834 19.2423 8.94201 20.7271 10.1074 21.8926C11.2729 23.058 12.7577 23.8517 14.3743 24.1732C15.9908 24.4948 17.6663 24.3297 19.189 23.699C20.7117 23.0683 22.0132 22.0002 22.9289 20.6298C23.8446 19.2593 24.3333 17.6482 24.3333 16C24.3333 13.7899 23.4554 11.6703 21.8926 10.1074C20.3298 8.54464 18.2101 7.66667 16 7.66667Z" fill="#848DF9" fill-opacity="0.87"/>
<path d="M16 21.2778C15.7799 21.2749 15.5696 21.1862 15.4139 21.0305C15.2583 20.8749 15.1695 20.6646 15.1667 20.4444V11.5556C15.1667 11.3345 15.2545 11.1226 15.4107 10.9663C15.567 10.81 15.779 10.7222 16 10.7222C16.221 10.7222 16.433 10.81 16.5893 10.9663C16.7455 11.1226 16.8333 11.3345 16.8333 11.5556V20.4444C16.8305 20.6646 16.7417 20.8749 16.5861 21.0305C16.4304 21.1862 16.2201 21.2749 16 21.2778Z" fill="#848DF9" fill-opacity="0.87"/>
<path d="M20.4444 16.8333H11.5556C11.3345 16.8333 11.1226 16.7455 10.9663 16.5893C10.81 16.433 10.7222 16.221 10.7222 16C10.7222 15.779 10.81 15.567 10.9663 15.4107C11.1226 15.2545 11.3345 15.1667 11.5556 15.1667H20.4444C20.6655 15.1667 20.8774 15.2545 21.0337 15.4107C21.19 15.567 21.2778 15.779 21.2778 16C21.2778 16.221 21.19 16.433 21.0337 16.5893C20.8774 16.7455 20.6655 16.8333 20.4444 16.8333Z" fill="#848DF9" fill-opacity="0.87"/>
</svg>
