<svg width="104" height="104" viewBox="0 0 104 104" fill="none" xmlns="http://www.w3.org/2000/svg">
<rect width="104" height="104" rx="4" fill="#EDEDED"/>
<path fill-rule="evenodd" clip-rule="evenodd" d="M58.3214 30.392C57.3557 30.3941 56.3752 30.3963 55.3732 30.3963C56.2031 29.5787 56.9571 28.8202 57.6918 28.0811C58.052 27.7187 58.4076 27.3611 58.7652 27.0034C59.065 26.7035 59.1774 26.5348 58.8026 26.1973C57.8844 25.3538 57.0223 24.4728 56.1603 23.573C55.8604 23.2731 55.7105 23.2544 55.3919 23.573C54.1551 24.8196 52.9135 26.0614 51.672 27.3033C50.4305 28.5452 49.1889 29.787 47.952 31.0336C46.9026 32.1021 46.9026 33.4892 47.9333 34.5389C49.1795 35.7949 50.4305 37.0461 51.6814 38.2974C52.9323 39.5486 54.1832 40.7998 55.4294 42.0557C55.7105 42.3369 55.8604 42.3369 56.1415 42.0557C56.2634 41.9312 56.3852 41.8063 56.5073 41.6812C57.2484 40.9214 57.9954 40.1557 58.7839 39.4314C59.1775 39.0752 59.1025 38.9065 58.7652 38.5879C57.9778 37.8403 57.2095 37.0643 56.4263 36.2733C56.1096 35.9535 55.7906 35.6313 55.4669 35.3075C55.5315 35.2913 55.5823 35.2751 55.6235 35.262C55.678 35.2446 55.716 35.2325 55.748 35.2325C56.5344 35.2325 57.3224 35.2294 58.111 35.2264C60.0848 35.2187 62.0628 35.2111 64.0312 35.2512C66.8235 35.3075 68.7537 37.3319 68.7537 40.1999C68.7631 43.7335 68.7631 47.2717 68.7631 50.81C68.7631 54.348 68.7631 57.8861 68.7725 61.4194C68.7725 61.8506 68.6038 62.0193 68.229 62.1317C63.469 63.6313 60.7329 68.4488 61.8198 73.3788C62.8505 78.0838 67.4606 81.308 72.3144 80.7081C76.887 80.1458 80.204 76.6592 80.7287 71.9167C81.1785 67.774 78.3675 63.5189 74.2446 62.1505C73.6824 61.9818 73.5512 61.7568 73.5512 61.1945C73.57 54.2775 73.57 47.3793 73.57 40.4624C73.57 39.1877 73.42 37.9318 72.989 36.7321C71.6022 32.8894 68.0603 30.4337 63.8625 30.3963C62.0399 30.3838 60.2092 30.3879 58.3214 30.392ZM71.2274 76.0031C73.851 75.9656 75.9874 73.8099 75.9874 71.1856C75.9874 68.5613 73.851 66.4244 71.2274 66.4056C68.585 66.3681 66.3924 68.5613 66.3924 71.2044C66.3924 73.8474 68.6037 76.0406 71.2274 76.0031Z" fill="#DC4361"/>
<path fill-rule="evenodd" clip-rule="evenodd" d="M23.1963 71.1481C23.2525 67.0055 25.9323 63.3502 29.8491 62.113C30.2239 62.0005 30.4113 61.8506 30.4113 61.4007C30.3925 55.1211 30.3925 48.8414 30.4113 42.5618C30.4113 42.112 30.2239 41.9807 29.8491 41.8683C25.7262 40.5561 22.9339 36.5072 23.215 32.2708C23.5149 27.7907 26.7382 24.1541 31.1047 23.3481C36.0146 22.4483 40.8308 25.5225 42.1052 30.415C43.3608 35.2512 40.606 40.2937 35.8272 41.8683C35.3399 42.0182 35.19 42.2244 35.19 42.7305C35.2088 48.9164 35.2088 55.1023 35.19 61.2882C35.19 61.7381 35.265 61.9818 35.7522 62.1317C39.9313 63.4439 42.7236 67.4741 42.3488 71.8605C41.9365 76.6592 38.5445 80.1458 33.9344 80.7082C28.2374 81.4205 23.14 76.8841 23.1963 71.1481ZM37.6075 71.2044C37.6075 73.8287 35.4711 75.9844 32.8475 76.0031C30.2239 76.0406 28.0125 73.8474 28.0125 71.2044C28.0125 68.5801 30.1489 66.4244 32.7725 66.4056C35.4149 66.3681 37.6075 68.5426 37.6075 71.2044ZM32.81 37.6131C35.4711 37.6131 37.645 35.4199 37.6075 32.7769C37.57 30.1151 35.3774 27.9594 32.735 27.9969C30.1114 28.0531 27.975 30.2275 28.0125 32.8519C28.0312 35.4762 30.2051 37.6131 32.81 37.6131Z" fill="black" fill-opacity="0.6"/>
</svg>
