<svg width="32" height="32" viewBox="0 0 32 32" fill="none" xmlns="http://www.w3.org/2000/svg">
<rect width="32" height="32" rx="4" fill="#444F5F"/>
<g clip-path="url(#clip0_104_4109)">
<path d="M24 11.6C24 12.705 23.105 13.6 22 13.6C20.895 13.6 20 12.705 20 11.6C20 10.4955 20.895 9.60001 22 9.60001C23.105 9.60001 24 10.4955 24 11.6ZM18.3175 16.6425L19.5225 14.6675C19.6025 14.5025 19.805 14.4 20 14.4C20.195 14.4 20.375 14.5025 20.4775 14.6675L23.7775 20.0775C23.9225 20.315 24 20.5925 24 20.8725C24 21.715 23.315 22.4 22.4725 22.4H9.39775C8.62575 22.4 8 21.7525 8 21.0025C8 20.74 8.0741 20.4825 8.21377 20.26L13.6325 11.6253C13.7975 11.3605 14.0875 11.2 14.4 11.2C14.7125 11.2 15.0025 11.3605 15.17 11.6253L18.3175 16.6425ZM19.03 17.78L20.585 20.26C20.725 20.4825 20.8 20.74 20.8 21.0025C20.8 21.07 20.795 21.135 20.785 21.2H22.4725C22.6525 21.2 22.8 21.0525 22.8 20.8725C22.8 20.8125 22.7825 20.7525 22.7525 20.7025L20 16.19L19.03 17.78ZM19.6 21.0025C19.6 20.965 19.59 20.9275 19.57 20.8975L14.4 12.6575L9.23025 20.8975C9.2105 20.9275 9.2 20.965 9.2 21.0025C9.2 21.1125 9.2885 21.2 9.39775 21.2H19.4025C19.5125 21.2 19.6 21.1125 19.6 21.0025Z" fill="#5D95E8"/>
</g>
<defs>
<clipPath id="clip0_104_4109">
<rect width="16" height="12.8" fill="white" transform="translate(8 9.60001)"/>
</clipPath>
</defs>
</svg>
