<svg width="24" height="24" viewBox="0 0 24 24" fill="none" xmlns="http://www.w3.org/2000/svg">
<path d="M19.83 8.00013C19.83 8.17013 19.83 8.35013 19.83 8.52013C19.8393 10.0303 19.5487 11.5273 18.9751 12.9243C18.4015 14.3213 17.5562 15.5906 16.4883 16.6584C15.4205 17.7263 14.1512 18.5716 12.7542 19.1452C11.3572 19.7188 9.8602 20.0094 8.35002 20.0001C6.15217 20.0065 3.99923 19.378 2.15002 18.1901C2.48002 18.1901 2.79002 18.1901 3.15002 18.1901C4.96348 18.1902 6.72436 17.5809 8.15002 16.4601C7.30496 16.4526 6.48401 16.1775 5.80492 15.6745C5.12584 15.1715 4.62352 14.4663 4.37002 13.6601C4.62467 13.7007 4.88216 13.7208 5.14002 13.7201C5.49717 13.7176 5.85284 13.6739 6.20002 13.5901C5.29653 13.4057 4.48451 12.9148 3.90138 12.2005C3.31825 11.4861 2.99984 10.5923 3.00002 9.67013C3.55911 9.97854 4.18209 10.1531 4.82002 10.1801C4.25714 9.8078 3.79596 9.30101 3.47818 8.70562C3.16041 8.11023 2.99607 7.44501 3.00002 6.77013C3.00127 6.06761 3.18752 5.37781 3.54002 4.77013C4.55175 6.01778 5.81426 7.03902 7.24578 7.7677C8.6773 8.49638 10.2459 8.91625 11.85 9.00013C11.7866 8.69749 11.7531 8.38934 11.75 8.08013C11.724 7.25701 11.9526 6.44591 12.4048 5.75758C12.8569 5.06926 13.5105 4.53726 14.2762 4.23424C15.042 3.93121 15.8826 3.87194 16.6833 4.0645C17.484 4.25706 18.2058 4.69207 18.75 5.31013C19.6551 5.12834 20.5214 4.78993 21.31 4.31013C21.0089 5.24329 20.3754 6.03332 19.53 6.53013C20.3337 6.44328 21.1194 6.23421 21.86 5.91013C21.3117 6.71109 20.6361 7.41706 19.86 8.00013H19.83Z" fill="#DC4361"/>
</svg>
